<svg width="189" height="188" viewBox="0 0 189 188" fill="none" xmlns="http://www.w3.org/2000/svg">
<g clip-path="url(#clip0_97_44)">
<path d="M16.9038 135.798L29.6255 153.566L22.8379 152.657L10.1365 134.868L16.9038 135.798Z" fill="#D84905"/>
<path d="M162.756 29.8075L175.458 47.5966C184.081 59.8186 188.644 74.5186 188.484 89.5589L175.763 71.7905C175.927 56.7463 171.371 42.0403 162.756 29.8075Z" fill="url(#paint0_linear_97_44)"/>
<path d="M175.783 71.7699L188.484 89.5589L182.042 94.3729L169.32 76.6045L175.783 71.7699Z" fill="#F67205"/>
<path d="M111.382 158.628L124.083 176.417L121.34 180.901L108.618 163.112L111.382 158.628Z" fill="#D84905"/>
<path d="M108.618 163.132L121.319 180.901C103.132 188.179 83.1352 189.373 64.2343 184.31C50.8485 180.662 38.8264 173.062 29.6865 162.471L16.9851 144.682C26.1162 155.284 38.1417 162.885 51.5329 166.521C70.4316 171.591 90.428 170.404 108.618 163.132Z" fill="url(#paint1_linear_97_44)"/>
<path d="M116.015 159.951L128.737 177.74L124.083 176.417L111.382 158.628L116.015 159.951Z" fill="#F69D05"/>
<path d="M175.519 78.3813L188.22 96.1498C187.324 106.346 184.698 116.307 180.457 125.592C169.81 148.635 151.49 167.107 128.737 177.74L116.015 159.971C138.775 149.331 157.102 130.853 167.756 107.803C171.978 98.5185 174.603 88.5673 175.519 78.3813Z" fill="url(#paint2_linear_97_44)"/>
<path style="mix-blend-mode:overlay" opacity="0.7" d="M176.291 79.3731C175.376 89.5657 172.75 99.5237 168.528 108.815C157.873 131.859 139.546 150.331 116.787 160.963L112.134 159.641L109.39 164.124C91.2132 171.44 71.2135 172.663 52.305 167.616C38.9148 163.978 26.8899 156.377 17.7572 145.777L17.5947 136.893L10.807 135.963C-0.918884 115.778 -2.40241 89.2903 9.26255 63.3608C12.7287 55.6946 17.1107 48.4916 22.3094 41.9148C25.042 40.6828 27.7081 39.3035 30.2961 37.7826L31.4544 31.8323C53.057 10.5928 82.9103 -0.997948 111.239 1.8326L117.336 6.87387L134.549 7.76228C161.192 19.1258 176.657 44.2288 176.535 72.7822L170.093 77.6169L176.291 79.3731Z" fill="url(#paint3_linear_97_44)"/>
<path d="M175.519 78.3813C174.604 88.5672 171.978 98.5184 167.756 107.802C157.102 130.853 138.775 149.331 116.015 159.971L111.361 158.628L108.618 163.132C90.4279 170.404 70.4316 171.591 51.5328 166.521C38.1416 162.885 26.1161 155.284 16.985 144.682L16.8224 135.798L10.0348 134.889C-1.6911 114.683 -3.17463 88.1952 8.49033 62.2658C11.9565 54.5995 16.3384 47.3966 21.5372 40.8197C24.2698 39.5878 26.9358 38.2084 29.5238 36.6876L30.6822 30.7372C52.2034 9.66308 82.0568 -1.9277 110.386 0.902847L116.483 5.92345L133.696 6.81187C160.399 18.134 175.803 43.2164 175.763 71.7904L169.32 76.7077L175.519 78.3813Z" fill="url(#paint4_linear_97_44)"/>
<path style="mix-blend-mode:overlay" opacity="0.7" d="M113.17 25.3447C145.157 34.4975 159.18 68.4434 144.446 101.253C129.712 134.063 91.8317 153.153 59.8445 144C27.8574 134.848 13.835 100.86 28.5686 68.0922C43.3023 35.324 81.1422 16.1919 113.17 25.3447Z" fill="url(#paint5_linear_97_44)"/>
<path d="M114.816 25.696C146.824 34.8488 160.826 68.8567 146.173 101.604C131.521 134.352 93.5591 153.525 61.5719 144.372C29.5848 135.22 15.4811 101.212 30.2148 68.4434C44.9484 35.6752 82.829 16.5432 114.816 25.696Z" fill="url(#paint6_linear_97_44)"/>
<path d="M66.5713 145.385C34.5842 136.232 20.5618 102.224 35.2954 69.4765C48.9316 39.1256 82.4227 20.4894 112.723 25.1588C81.1424 17.4109 44.5624 36.419 30.2149 68.4434C15.4813 101.191 29.5036 135.199 61.4908 144.352C63.8561 145.014 66.2584 145.532 68.6849 145.901L66.5713 145.385Z" fill="#BA3E05"/>
<path style="mix-blend-mode:overlay" opacity="0.5" d="M147.738 144.124C134.772 157.099 122.701 166.004 120.791 164.021C118.88 162.037 127.802 149.909 140.767 136.934C153.733 123.959 165.804 115.054 167.735 117.038C169.666 119.021 160.704 131.149 147.738 144.124Z" fill="url(#paint7_radial_97_44)"/>
<path style="mix-blend-mode:overlay" opacity="0.4" d="M157.087 22.9894L16.9851 140.922V144.682C26.1162 155.284 38.1417 162.885 51.5329 166.521C54.7328 167.412 57.9837 168.102 61.2672 168.587L170.296 76.8937L169.321 76.7078L175.763 71.8938C176.021 53.745 169.323 36.2061 157.087 22.9894Z" fill="url(#paint8_linear_97_44)"/>
<path style="mix-blend-mode:overlay" opacity="0.4" d="M116.584 5.86112L110.488 0.840516C102.11 0.0321731 93.6632 0.414633 85.3897 1.97687L5.95012 68.8563C1.51265 80.7021 -0.190737 93.4254 0.971179 106.046L119.877 6.04707L116.584 5.86112Z" fill="url(#paint9_linear_97_44)"/>
<g style="mix-blend-mode:overlay">
<path d="M135.211 78.5364C132.985 71.7692 128.589 65.646 119.95 65.7199C119.95 65.7199 129.025 70.0974 128.319 79.0115C128.319 79.0115 131.727 89.0937 135.21 78.5386L135.211 78.5364Z" fill="#F87D05"/>
<path d="M128.319 79.0092C129.026 70.0951 119.951 65.7176 119.951 65.7176C128.589 65.646 132.986 71.7669 135.212 78.5341C135.212 78.5341 138.33 84.6988 141.76 74.5132C141.61 73.5405 141.421 72.5375 141.183 71.5007C137.499 55.4069 121.793 57.9264 119.272 60.3183C116.039 64.5194 117.526 71.6938 117.526 71.6938C120.821 72.6538 122.254 75.2554 122.687 78.3434C122.687 78.3434 124.709 86.1912 128.32 79.0069L128.319 79.0092Z" fill="#F87D05"/>
<path d="M128.319 79.0092C128.196 80.5619 127.778 82.2526 126.962 84.0843C127.745 87.3012 127.766 92.7428 124.087 101.139C124.087 101.139 131.919 98.096 135.42 79.1917C135.352 78.973 135.282 78.7536 135.212 78.5341C131.728 89.0892 128.32 79.007 128.32 79.007L128.319 79.0092Z" fill="#BA3E05"/>
<path d="M120.445 92.4818C120.366 92.7043 120.648 92.8762 120.81 92.7066C123.85 89.5522 125.803 86.6791 126.961 84.0865C127.778 82.2548 128.195 80.5664 128.319 79.0115C124.71 86.1965 122.687 78.3509 122.686 78.3479C123.41 83.521 121.318 90.0529 120.443 92.4811L120.445 92.4818Z" fill="#BA3E05"/>
<path d="M135.211 78.5364C135.284 78.7543 135.352 78.973 135.419 79.1939C137.5 85.9755 137.489 93.2162 137.428 95.4227C137.422 95.6369 137.697 95.7311 137.823 95.5547C139.234 93.6068 143.597 86.4445 141.76 74.5155C138.329 84.701 135.211 78.5364 135.211 78.5364Z" fill="#BA3E05"/>
<path d="M141.2 74.6031C140.884 72.6953 140.424 70.755 139.754 68.9354C137.151 61.8289 130.433 58.3857 123.098 59.7084C121.973 59.9241 120.75 60.2356 119.85 60.9308L119.937 60.8343C119.386 61.5379 118.968 62.3387 118.648 63.1795C118.322 64.0513 118.101 64.963 117.937 65.8837C117.626 67.7833 117.563 69.7356 117.644 71.6729C117.645 71.6782 117.561 71.5824 117.56 71.5846C126.498 73.3069 123.228 86.5925 120.951 92.5272L120.909 92.6389C120.984 92.3975 120.703 92.1932 120.502 92.3425C120.492 92.3515 120.483 92.3561 120.475 92.3636C120.474 92.3659 120.464 92.3749 120.468 92.3712L120.479 92.3598L120.525 92.3123C120.955 91.875 121.415 91.415 121.829 90.9648C123.839 88.7869 125.679 86.4191 126.999 83.7398C128.119 88.1701 127.196 92.8191 125.787 97.0751C125.329 98.471 124.768 99.8298 124.197 101.183L124.195 101.187L124.042 101.028C126.652 99.3216 128.381 96.5699 129.848 93.8793L130.543 92.4895C130.854 91.8116 131.171 91.0348 131.48 90.3486C131.649 89.8947 132.131 88.63 132.311 88.1595C132.921 86.4025 133.717 83.9403 134.293 82.1969C134.622 81.0748 134.991 79.9437 135.43 78.8382C137.147 84.1764 137.788 89.8245 137.745 95.4206C137.74 95.3309 137.619 95.2879 137.561 95.3618L137.582 95.3309C138.935 93.3612 139.899 91.1313 140.563 88.8389C141.89 84.2238 141.967 79.323 141.199 74.6001L141.2 74.6031ZM142.324 74.4297C142.785 77.6851 142.835 81.0024 142.412 84.2646C141.828 88.3231 140.522 92.3545 138.113 95.7117C137.919 96.0314 137.425 96.0578 137.211 95.7426C137.133 95.6438 137.107 95.4892 137.113 95.4033L137.13 94.8007C137.223 89.5658 136.749 84.2774 135.307 79.2295L135.538 79.216L135.537 79.2205C135.395 82.4359 134.75 85.6144 133.704 88.6542C132.237 92.6848 130.192 96.6936 126.903 99.5486C126.071 100.229 125.163 100.901 124.131 101.251L123.863 101.338L123.978 101.092C125.138 98.4099 126.126 95.6424 126.721 92.7791C127.305 89.9346 127.513 86.9575 126.845 84.1131L127.07 84.1327C126.544 85.4908 125.856 86.7848 125.071 88.0163C123.924 89.8231 122.574 91.4972 121.121 93.0642C120.62 93.5506 119.747 93.0159 119.976 92.338C120.158 91.7928 120.343 91.2136 120.506 90.6646C122.154 84.9124 124.426 74.7405 117.429 71.7822C116.22 67.9809 116.143 63.0008 118.692 59.713C119.141 59.302 119.661 59.0154 120.21 58.7787C124.941 56.8994 130.596 57.4544 134.859 60.2581C139.681 63.4615 141.595 68.9331 142.321 74.4312L142.324 74.4297Z" fill="#BA3E05"/>
<path d="M119.958 65.5994C128.034 66.0993 134.813 71.8983 136.336 80.148C136.336 80.148 135.776 79.1368 135.421 79.1918C134.864 79.2778 134.501 80.6676 134.501 80.6676C134.293 78.9264 133.792 75.8889 133.017 74.3136C130.599 69.3902 125.243 66.5518 119.947 65.8369L119.96 65.6002L119.958 65.5994Z" fill="#BA3E05"/>
<path d="M123.779 69.1255C127.155 72.7617 130.218 78.1036 128.208 83.1372L126.75 82.4653C126.999 81.9676 127.206 81.4458 127.346 80.8968C128.044 77.98 127.017 74.9478 125.627 72.3605C125.039 71.2874 124.369 70.2445 123.603 69.2853L123.779 69.1255Z" fill="#BA3E05"/>
<path d="M119.99 93.6575C125.289 82.0762 121.725 72.7541 118.951 68.029C118.288 69.0146 117.83 69.5982 117.83 69.5982C114.145 65.3814 99.921 63.767 83.5074 71.2461C78.1934 73.6675 72.7488 74.6177 67.8133 74.7949C67.8133 74.7949 63.776 84.1472 64.5497 91.569C64.6251 92.2929 63.8627 92.8155 63.2142 92.4837C61.5801 91.6474 59.0652 89.8489 57.5902 86.2956C57.4318 85.9111 57.2848 85.5076 57.1528 85.0816C57.0163 84.3373 56.8496 83.6382 56.6581 82.9837C56.6581 82.9837 56.6596 82.9792 56.6581 82.9761C56.6317 82.8517 56.5932 82.7333 56.5487 82.6179C54.8988 77.4027 51.5634 75.1924 48.5689 75.5793C45.548 75.9699 42.8763 79.0082 42.638 84.2853C42.6856 100.137 51.8961 99.6529 51.8961 99.6529C51.8961 99.6529 55.5136 115.307 67.5678 125.476C83.7597 139.135 106.966 136.593 113.075 122.632C118.892 111.968 112.25 110.561 119.986 93.656L119.99 93.6575Z" fill="#FFB803"/>
<path d="M119.623 47.7365C109.055 41.6276 75.7148 35.0363 61.3049 46.2324C58.1732 48.6673 55.5889 51.2697 53.4843 53.8208C53.4843 53.8208 51.0908 58.1358 57.5745 59.3694C64.0559 60.6023 65.7466 59.5798 65.7466 59.5798C65.7466 59.5798 65.7654 62.3887 70.6866 61.704C70.6866 61.704 71.3427 63.6269 74.8816 63.9218C74.8816 63.9218 82.4007 67.8257 82.0131 71.8842C82.5131 71.6813 83.0123 71.4732 83.5108 71.2447C99.922 63.7648 114.149 65.38 117.833 69.5968C117.833 69.5968 118.292 69.0132 118.955 68.0276C121.741 63.8914 128.162 52.6667 119.626 47.735L119.623 47.7365Z" fill="#F87D05"/>
<path d="M74.7758 63.9141C73.4916 63.7927 72.598 63.4571 71.9796 63.08C71.6553 62.884 71.6471 62.4187 71.9577 62.203C75.0254 60.0886 78.0093 57.8632 80.8107 55.3936L80.6818 55.1922C79.0937 55.8694 77.5583 56.6295 76.0419 57.416C73.493 58.7433 71.0038 60.1708 68.553 61.6639C68.4489 61.7272 68.3268 61.7544 68.2054 61.734C67.2175 61.5757 66.6256 61.1948 66.2734 60.7959C66.0577 60.5531 66.118 60.1761 66.3933 60.0064C72.4426 56.2842 78.4474 52.4918 84.3202 48.4921L84.1973 48.2877C81.9185 49.4913 79.6698 50.7476 77.4264 52.0107C72.9425 54.543 68.4957 57.1378 64.0805 59.7885C64.0805 59.7885 64.0805 59.7885 64.0797 59.7907C63.9018 59.9023 63.6982 59.9627 63.4893 59.971C62.2269 60.0102 60.3372 59.8956 57.5742 59.3692C54.0616 58.7011 53.156 57.1273 53.0617 55.8265C53.027 55.3424 52.4124 55.1652 52.1198 55.5528C47.9716 61.0675 46.0472 66.0867 45.6166 68.2608C45.554 68.5768 45.7878 68.8708 46.1098 68.8852C47.0064 68.9251 48.8713 68.8731 51.1569 68.0715C51.675 67.8897 52.086 68.5345 51.7036 68.9274C50.8568 69.8014 50.0243 70.7907 49.6216 71.6444C49.4927 71.9181 49.6427 72.2446 49.93 72.3404L49.9391 72.3434C51.3108 72.7981 55.3459 74.0099 60.7324 74.5536C62.9012 74.7738 65.2924 74.8846 67.8141 74.7926C72.1878 74.6342 76.9604 73.8673 81.6893 72.0099C81.8914 71.9315 82.0279 71.7332 82.0241 71.5183C81.9578 67.8564 75.7931 64.414 74.9688 63.9683C74.9093 63.9359 74.8429 63.9163 74.7743 63.911L74.7758 63.9141Z" fill="#BA3E05"/>
<path d="M117.735 69.529C120.819 64.8234 125.79 55.5534 121.879 50.3788C120.482 48.5811 118.2 47.8277 116.155 46.9704C111.788 45.2857 107.225 44.0739 102.642 43.1095C90.3834 40.6346 72.617 39.0285 62.0915 46.859C54.5732 52.1679 48.634 60.024 46.3137 68.9834L45.776 68.0777L45.7896 68.0823L45.8303 68.0958C46.7654 68.3371 47.7827 68.2941 48.7374 68.1825C52.6059 67.6773 56.1961 65.7294 59.4424 63.6368L59.5819 63.8291C55.9118 66.6653 51.7047 69.423 46.9449 69.7292C46.402 69.7292 45.8469 69.7428 45.2851 69.5957L44.6306 69.4253C44.6954 68.8989 44.8297 68.2549 44.9541 67.7686C46.089 63.3609 48.1567 59.2315 50.747 55.5025C54.3658 50.3543 59.3006 45.8282 64.8665 42.8699C75.8475 37.4057 91.3298 38.8663 103.008 41.3917C108.824 42.7294 114.646 44.3884 119.985 47.1483C121.093 47.7516 122.124 48.5728 122.886 49.6209C125.882 53.8823 123.861 59.4777 121.756 63.6425C120.657 65.7645 119.387 67.787 117.929 69.6715L117.737 69.5297L117.735 69.529Z" fill="#BA3E05"/>
<path d="M91.8616 134.413C91.8616 134.413 51.231 115.267 63.0732 96.2699C70.0477 85.0814 69.5583 75.917 67.8148 74.7979C66.0713 73.6788 68.4174 80.4031 62.4827 81.5116C56.548 82.6201 57.5917 86.2986 57.5917 86.2986C57.5917 86.2986 58.2478 97.5723 51.8968 99.6581C54.7903 111.18 65.0981 132.606 91.8578 134.417L91.8616 134.413Z" fill="#F87E05"/>
<path d="M123.817 56.3737C122.056 51.3628 117.357 48.4716 112.136 48.5916C108.792 48.6255 105.465 49.55 102.374 50.7973C100.438 51.562 98.4735 52.531 96.6358 53.5121C90.9665 56.5767 85.2302 59.5939 79.4652 62.4708C73.2432 65.4819 67.0672 68.6265 60.4448 70.7274C57.9427 71.4845 55.3532 72.1346 52.7169 72.2236C51.8338 72.2409 50.9417 72.21 50.0798 72.0132L50.1009 71.7764C50.9553 71.7244 51.7878 71.5796 52.6098 71.3835C55.0832 70.8029 57.4555 69.8919 59.8226 68.9666C66.1691 66.4268 72.4091 63.6329 78.552 60.618C83.811 58.0752 89.4561 55.2186 94.6895 52.5793C100.088 49.8215 105.951 47.284 112.155 47.4642C115.689 47.5713 119.301 48.9663 121.601 51.7112C122.743 53.0572 123.594 54.6227 124.045 56.3164L123.814 56.3752L123.817 56.3737Z" fill="#BA3E05"/>
<path d="M85.7646 62.143C89.1686 60.8271 91.7182 59.2177 91.4594 58.5482C91.2006 57.8787 88.2313 58.4027 84.8274 59.7186C81.4235 61.0345 78.8739 62.6439 79.1327 63.3134C79.3915 63.9829 82.3607 63.4589 85.7646 62.143Z" fill="#FEB903"/>
<path d="M75.5511 49.5707C75.1884 49.0602 73.4585 49.6273 71.2822 50.8776C70.8969 51.0985 70.4369 50.7743 70.5002 50.3354C70.5394 50.0594 70.4994 49.8173 70.3637 49.6288C69.7989 48.8348 67.8171 49.2752 65.9357 50.6137C64.0542 51.9522 62.9865 53.6776 63.5513 54.4716C63.7443 54.7446 64.1048 54.8698 64.5685 54.866C65.0323 54.8622 65.2601 55.4157 64.9494 55.7521C64.0226 56.7528 63.5747 57.5536 63.8243 57.9058C64.319 58.601 67.3444 57.2995 70.5824 54.998C73.8205 52.6965 76.045 50.2683 75.5503 49.573L75.5511 49.5707Z" fill="#FEB903"/>
<path d="M86.7659 55.4102C86.6113 55.0068 85.3881 55.0716 83.6334 55.4947C83.1545 55.6115 82.8144 55.0407 83.147 54.6765C83.4124 54.3854 83.5233 54.1358 83.4501 53.948C83.153 53.1804 79.9074 53.7173 76.2025 55.1493C72.4977 56.5814 69.734 58.3648 70.0303 59.1347C70.2038 59.5872 71.4005 59.5864 73.1093 59.2184C73.5776 59.1181 73.9049 59.6822 73.5836 60.0351C73.377 60.2628 73.291 60.4529 73.3483 60.5977C73.6078 61.2673 76.8202 60.6489 80.5273 59.2176C84.2321 57.7856 87.0275 56.0806 86.7681 55.4109L86.7659 55.4102Z" fill="#FEB903"/>
<path d="M58.7374 79.3106C63.1518 83.4264 65.35 81.017 66.3311 78.9259C67.1025 76.4533 67.8181 74.7965 67.8181 74.7965C65.2942 74.8878 62.906 74.7754 60.7364 74.5575C55.3507 74.0116 51.3156 72.7998 49.9431 72.3473C48.8497 74.3381 48.576 75.5816 48.576 75.5816C48.6883 75.5688 48.8022 75.559 48.9153 75.5515L48.7524 75.0145C48.7524 75.0145 52.0802 73.1074 58.7389 79.3136L58.7374 79.3106Z" fill="#F87D05"/>
<path d="M56.5534 82.6196C56.5979 82.7349 56.6364 82.8533 56.6628 82.9778C56.6628 82.9778 56.6613 82.9823 56.6628 82.9853C56.8543 83.6399 57.021 84.3389 57.1575 85.0832C57.2894 85.5092 57.4365 85.9127 57.5949 86.2973C59.0669 89.852 61.5825 91.6483 63.2189 92.4853C63.8674 92.8171 64.6298 92.2945 64.5544 91.5706C64.1042 87.273 65.27 82.3277 66.331 78.926C65.3507 81.0148 63.1525 83.4241 58.7373 79.3106C52.0809 73.1052 48.7508 75.0116 48.7508 75.0116L48.9137 75.5485C51.8162 75.3622 54.966 77.6011 56.5542 82.6173L56.5534 82.6196Z" fill="#BA3E05"/>
<path d="M74.5457 88.3809L91.168 92.2069C91.168 92.2069 89.4189 101.996 81.1237 100.426C71.8941 98.6773 74.5457 88.3809 74.5457 88.3809Z" stroke="#BA3E05" stroke-width="0.6993" stroke-miterlimit="10"/>
<path d="M78.263 89.236L74.5462 88.3811C74.5462 88.3811 71.8946 98.6775 81.1242 100.426C81.884 100.57 82.5894 100.617 83.2436 100.587C76.7176 98.2433 77.9545 90.7041 78.2622 89.2382L78.263 89.236Z" fill="#F87F05"/>
<path d="M74.5457 88.3809L91.168 92.2069C91.168 92.2069 89.4189 101.996 81.1237 100.426C71.8941 98.6773 74.5457 88.3809 74.5457 88.3809Z" stroke="#BA3E05" stroke-width="0.6993" stroke-miterlimit="10"/>
<path d="M84.2287 97.3177C85.1389 97.621 86.3027 96.589 86.8282 95.0125C87.3537 93.436 87.0419 91.912 86.1317 91.6086C85.2215 91.3052 84.0576 92.3373 83.5322 93.9138C83.0067 95.4903 83.3185 97.0143 84.2287 97.3177Z" fill="#BA3E05"/>
<path d="M117.697 99.2531L103.782 96.2752C103.782 96.2752 101.648 104.291 108.471 106.033C116.064 107.971 117.697 99.2531 117.697 99.2531Z" stroke="#BA3E05" stroke-width="0.58275" stroke-miterlimit="10"/>
<path d="M106.943 96.9546L103.812 96.3942C103.812 96.3942 102.026 105.083 109.79 106.16C110.429 106.249 111.018 106.259 111.56 106.207C106.026 104.524 106.747 98.1901 106.943 96.9546Z" fill="#F87F05"/>
<path d="M117.697 99.2531L103.782 96.2752C103.782 96.2752 101.648 104.291 108.471 106.033C116.064 107.971 117.697 99.2531 117.697 99.2531Z" stroke="#BA3E05" stroke-width="0.58275" stroke-miterlimit="10"/>
<path d="M106.858 103.392C107.78 103.581 108.793 102.44 109.12 100.844C109.447 99.2482 108.965 97.8011 108.043 97.612C107.121 97.423 106.108 98.5637 105.781 100.16C105.454 101.756 105.936 103.203 106.858 103.392Z" fill="#BA3E05"/>
<path d="M106.827 101.002C107.216 101.082 107.662 100.511 107.823 99.728C107.983 98.9446 107.798 98.2448 107.409 98.165C107.02 98.0852 106.574 98.6557 106.413 99.4391C106.253 100.223 106.438 100.922 106.827 101.002Z" stroke="#BA3E05" stroke-width="0.200466" stroke-miterlimit="10"/>
<path d="M71.5161 82.9895C71.5161 82.9895 74.9943 75.8915 83.6837 77.1021C90.589 78.0651 99.2556 78.9164 94.3905 86.4738C93.2198 88.2936 80.2844 83.1782 71.5138 82.9893L71.5161 82.9895Z" fill="#BA3E05"/>
<path d="M71.5161 82.9895C71.5161 82.9895 74.9943 75.8915 83.6837 77.1021C90.589 78.0651 99.2556 78.9164 94.3905 86.4738C93.2198 88.2936 80.2844 83.1782 71.5138 82.9893L71.5161 82.9895Z" stroke="#BA3E05" stroke-width="0.6993" stroke-miterlimit="10"/>
<path d="M118.446 88.1151C117.929 87.8392 117.367 87.5862 116.75 87.3638L116.027 87.1029C112.129 85.6872 107.71 84.0829 105.671 85.648C104.7 86.3927 104.304 87.8776 104.495 90.057C104.564 90.8378 108.472 91.8339 111.92 92.711C114.063 93.2574 116.489 93.873 118.826 94.6058C119.662 93.2367 120.558 91.8751 121.442 90.4961C120.694 89.6253 119.718 88.7978 118.444 88.1139L118.446 88.1151Z" fill="#BA3E05"/>
<path d="M54.2572 66.7346C53.0303 68.0776 51.8238 69.4727 50.8812 71.0111C50.6482 71.3708 50.3609 71.9612 50.3662 72.3073L49.7493 71.2773C57.8422 73.716 66.5738 74.3818 74.905 72.8781C78.0285 72.308 81.0856 71.3864 83.9948 70.1165C84.9126 69.701 86.052 69.1634 86.9795 68.7863C94.5921 65.7888 104.91 64.3868 112.84 66.6657C114.243 67.0804 115.6 67.6912 116.796 68.532L116.664 68.7319C115.432 68.0072 114.082 67.5193 112.697 67.1935C104.982 65.5067 94.8552 67.2766 87.6424 70.3571C87.0987 70.6006 86.2684 70.995 85.7247 71.2688C82.4309 72.9233 78.8927 74.1117 75.2783 74.8274C66.377 76.5558 56.8777 75.8327 48.3392 72.7855L48.487 72.0329C48.72 71.1453 49.1777 70.7072 49.7003 70.1122C50.1557 69.6356 50.6286 69.2126 51.1089 68.8046C52.0749 67.9954 53.071 67.2542 54.0966 66.5529L54.2497 66.7346L54.2572 66.7346Z" fill="#BA3E05"/>
<path d="M50.2447 72.5132C49.6377 73.4898 49.0683 74.5191 48.7071 75.6103C48.7071 75.6103 48.7109 75.599 48.7102 75.6012L48.5563 75.4444C51.7243 75.0198 54.3975 77.4744 55.7323 80.1288C56.1229 80.8723 56.4781 81.7674 56.7413 82.5615C56.975 83.2854 57.2307 84.2981 57.3574 85.019L57.6658 85.8583C58.3867 87.8054 59.6363 89.5617 61.2372 90.8821C61.9061 91.4243 62.6639 91.9408 63.4407 92.2952C63.8645 92.4415 64.3501 92.0479 64.2883 91.5999C64.1985 90.6852 64.1593 89.7622 64.1887 88.8445C64.3742 83.9444 65.6968 79.1921 67.4915 74.6525L67.524 74.9926L67.5187 74.9858L68.1144 74.6012L68.1114 74.5952L68.1438 74.9353C66.3431 79.3497 64.9782 84.0779 64.7535 88.8618C64.7158 89.7592 64.7452 90.6513 64.8237 91.5472C64.9232 92.3571 64.062 93.0629 63.2868 92.7869C61.8661 92.1248 60.6407 91.1256 59.6061 89.9613C58.3732 88.5851 57.5195 86.8929 56.9622 85.1412C56.8107 84.314 56.6229 83.4897 56.3748 82.6881C55.8228 80.9507 55.0068 79.2284 53.7588 77.8823C52.4278 76.393 50.4317 75.421 48.413 75.7385C48.6204 74.4905 49.1136 73.3201 49.6399 72.1784L50.2477 72.5117L50.2447 72.5132Z" fill="#BA3E05"/>
<path d="M55.9519 87.1094C55.9745 87.2225 55.8441 87.3047 55.7551 87.2323C54.8208 86.4759 51.6754 84.3592 50.1085 88.6907C49.012 91.7237 51.3361 93.9965 52.6023 94.964C52.7244 95.0575 52.6271 95.2513 52.4801 95.2098C51.134 94.8215 48.6433 94.2099 48.0702 94.7981C47.9902 94.8796 47.853 94.869 47.7753 94.7853C46.8968 93.854 43.4544 89.5293 46.6992 81.9288C48.6093 77.1562 54.5515 80.4515 55.9534 87.1124L55.9519 87.1094Z" fill="#F87D05"/>
<path d="M48.5717 76.2665C48.5717 76.2665 48.5914 76.268 48.6217 76.268C48.6346 76.2672 48.646 76.2634 48.6596 76.2604L48.5717 76.2665Z" fill="#BA3E05"/>
<path d="M123.269 79.2866C122.92 75.9679 121.676 72.8233 120.218 69.8462L119.21 67.8916L118.697 68.163C119.637 70.0498 120.641 72.1363 121.317 74.1264C121.506 74.707 121.688 75.351 121.874 75.9309C122.044 76.7189 122.269 77.5002 122.355 78.298C122.395 78.6909 122.475 78.9412 122.494 79.3598L122.552 80.4276C122.632 84.652 121.244 88.7113 119.696 92.6921C119.976 92.9063 120.239 93.1295 120.484 93.3595C122.196 88.795 123.736 84.1701 123.273 79.2828L123.269 79.2866Z" fill="#BA3E05"/>
<path d="M117.433 98.5537C117.367 98.7377 117.303 98.9202 117.242 99.1034C116.52 101.188 115.892 103.364 115.561 105.549C115.086 108.452 115.487 111.413 115.094 114.289C114.571 118.496 112.967 122.614 110.271 125.905C98.5651 140.031 75.9807 133.551 64.7591 121.993C58.6939 115.809 54.3804 107.944 52.0186 99.6309L51.9982 99.5487L51.9198 99.5351C47.1826 98.5669 45.5168 95.1637 43.9083 91.0154C42.204 86.785 43.0719 77.0851 48.6213 76.2654C48.5941 76.2639 48.5715 76.2639 48.5715 76.2639L48.659 76.2578C48.659 76.2578 48.6348 76.2624 48.6213 76.2654C48.7449 76.2714 49.0775 76.2842 49.0775 76.2842C50.2252 76.3325 51.3993 76.6485 52.3797 77.2517C55.9148 79.4506 56.9042 84.4683 57.2066 88.3647L57.4442 88.376C57.6018 86.9078 57.543 85.4328 57.3476 83.9601C56.8552 80.1889 54.8961 76.1877 50.8956 75.1961L50.321 75.0573L49.7381 74.9736C49.6415 74.9616 49.5443 74.9442 49.447 74.9344C49.229 74.9246 48.8083 74.8975 48.5722 74.8892C47.8212 74.9631 47.0776 75.2104 46.4125 75.5694C42.2831 77.9207 41.4816 84.1864 42.1369 88.4794C42.3284 89.8051 42.7764 91.0931 43.3691 92.2936C44.9399 95.7632 46.9119 98.8135 50.91 99.6007C51.2072 99.6595 51.505 99.701 51.8006 99.7493C51.7946 99.7221 51.7886 99.695 51.7848 99.6686L51.8813 99.7636C51.8549 99.7598 51.8263 99.7553 51.7999 99.7515C52.0608 101.171 52.4265 102.562 52.8473 103.939C54.5788 109.566 57.2724 114.908 60.8461 119.601C64.0118 123.715 67.9142 127.301 72.4101 129.92C81.9283 135.436 94.4266 138.073 104.537 132.606C111.329 128.978 115.574 122.017 116.368 114.432C116.729 111.508 116.284 108.585 116.707 105.702C116.91 104.309 117.207 102.865 117.61 101.506C117.873 100.558 118.179 99.6117 118.506 98.6676C118.151 98.6246 117.793 98.5831 117.431 98.5454L117.433 98.5537Z" fill="#BA3E05"/>
<path d="M51.7839 99.6784C51.79 99.7058 51.7961 99.7331 51.7999 99.7597C51.8265 99.7635 51.8554 99.7681 51.882 99.7719L51.7847 99.6761L51.7839 99.6784Z" fill="#BA3E05"/>
<path d="M117.662 97.9187C118.019 97.9571 118.377 97.9986 118.73 98.0431C119.208 96.697 119.727 95.3517 120.238 94.0011C119.995 93.7644 119.732 93.5336 119.449 93.3134C118.841 94.8578 118.219 96.3924 117.662 97.9209L117.662 97.9187Z" fill="#BA3E05"/>
<path d="M120.359 93.6821C120.399 93.5751 120.439 93.4702 120.48 93.3632C120.234 93.1354 119.972 92.9122 119.692 92.6958C119.653 92.7984 119.611 92.9024 119.571 93.005C119.853 93.2222 120.117 93.4484 120.362 93.6806L120.359 93.6821Z" fill="#BA3E05"/>
<path d="M118.62 98.3559C118.265 98.313 117.907 98.2715 117.55 98.233C117.511 98.3409 117.474 98.4464 117.435 98.5543C117.795 98.5912 118.153 98.6327 118.511 98.6764C118.546 98.5701 118.585 98.4623 118.622 98.3567L118.62 98.3559Z" fill="#BA3E05"/>
<path d="M117.663 97.9188C117.625 98.0244 117.587 98.13 117.547 98.2348C117.906 98.274 118.263 98.3125 118.617 98.3577C118.652 98.2536 118.69 98.1481 118.727 98.0448C118.372 97.9995 118.016 97.9588 117.66 97.9203L117.663 97.9188Z" fill="#BA3E05"/>
<path d="M120.241 93.9996C120.282 93.8926 120.322 93.7877 120.362 93.6807C120.118 93.4484 119.854 93.2222 119.572 93.005C119.533 93.1076 119.491 93.2094 119.452 93.3119C119.735 93.5344 119.997 93.7651 120.241 93.9996Z" fill="#BA3E05"/>
<path d="M98.3354 68.9846C101.598 65.5527 105.183 62.6027 109.029 60.8305C110.086 60.3909 111.184 60.0357 112.328 59.8487C113.493 59.6941 114.608 59.7039 115.747 59.7718C116.131 59.7944 116.515 59.8343 116.891 59.8917C115.363 58.2161 112.354 57.7109 110.247 57.4258C108.43 57.2147 106.545 57.1069 104.716 57.2185C102.564 57.3859 100.456 57.91 98.4379 58.6928C93.3983 60.6677 88.3957 64.1532 83.8071 68.1763C82.5998 70.4785 81.8661 73.2453 85.537 72.9406C89.6249 71.2944 93.8358 69.9657 98.1469 69.0223C98.2095 69.008 98.2736 68.9967 98.3354 68.9846Z" fill="#F87D05"/>
<path d="M119.261 69.5831C119.305 69.5573 119.359 69.5246 119.359 69.5246C119.319 69.514 119.28 69.5086 119.24 69.5003C119.235 69.5162 119.229 69.5345 119.226 69.5512C119.238 69.5603 119.249 69.5717 119.261 69.5809L119.261 69.5831Z" fill="#F87D05"/>
<path d="M119.226 69.5513C119.232 69.5331 119.238 69.5172 119.241 69.5005C119.208 69.4921 119.177 69.4868 119.144 69.4808C119.172 69.5028 119.198 69.5293 119.226 69.5536L119.226 69.5513Z" fill="#F87D05"/>
<path d="M120.766 63.3226C120.487 62.0482 119.582 61.3416 118.454 60.9533C118.134 60.844 117.797 60.7595 117.452 60.6946C116.302 60.4797 115.059 60.4903 114.065 60.5182C112.425 60.5423 110.876 60.9737 109.381 61.6366C106.248 63.1184 103.102 65.6416 100.126 68.6263C99.8275 68.9264 99.5296 69.2318 99.2332 69.5402C99.01 69.7725 98.7883 70.0078 98.5659 70.2453C98.1572 71.1924 98.0101 72.2519 99.5703 72.0204C102.249 71.6238 115.082 66.1535 119.143 69.4828C119.175 69.4911 119.206 69.4964 119.239 69.5024C119.309 69.2566 119.404 69.0319 119.494 68.8056C120.195 67.1014 121.106 65.1777 120.766 63.3249L120.766 63.3226ZM116.321 67.8057L116.187 67.8992C116.194 67.8615 116.206 67.8276 116.215 67.7929C116.251 67.7974 116.285 67.8012 116.321 67.8057Z" fill="#F87D05"/>
<path d="M116.323 67.8039C116.287 67.7993 116.252 67.7955 116.216 67.791C116.206 67.8282 116.195 67.8625 116.188 67.8982L116.323 67.8039Z" fill="#F87D05"/>
<path d="M70.9509 81.8308C70.9494 81.8354 70.9494 81.8354 70.9509 81.8308Z" stroke="#F87D05" stroke-width="0.275287" stroke-miterlimit="10"/>
<path d="M99.5712 72.0183C98.011 72.2498 98.158 71.1903 98.5667 70.2431C94.7337 74.3597 91.2498 79.0955 88.5231 83.1283C93.623 78.4537 99.2741 74.2971 105.669 71.5975C108.549 70.4158 111.579 69.5305 114.691 69.2808C116.181 69.1692 117.676 69.1624 119.147 69.4791C115.088 66.1506 102.253 71.6201 99.5742 72.0168L99.5712 72.0183Z" fill="#BA3E05"/>
<path d="M83.8079 68.1791C79.904 71.6035 76.3002 75.4169 73.2333 79.0298C77.1802 76.7057 81.2908 74.6523 85.5378 72.9435C81.8669 73.2481 82.6021 70.4844 83.8079 68.1791Z" fill="#BA3E05"/>
<path d="M119.211 69.6111C119.211 69.6111 119.236 69.5968 119.261 69.5802C119.25 69.5689 119.238 69.5599 119.226 69.5508C119.219 69.5712 119.213 69.5892 119.209 69.6103L119.211 69.6111Z" fill="#F87D05"/>
<path d="M119.441 69.6676C120.051 68.1217 120.968 66.6452 121.249 64.9742C121.788 62.233 120.259 60.8161 118.174 60.1812C117.617 59.0153 116.543 58.0765 115.07 57.3971C113.595 56.732 112.011 56.3248 110.449 56.0654C108.537 55.7524 106.57 55.539 104.63 55.5888C96.7929 56.0179 89.5438 60.3985 83.3867 65.794C80.1562 68.6234 77.2273 71.7318 74.6702 74.6976C72.975 76.6764 71.3364 78.7192 69.7935 80.8216C69.0726 81.6496 70.1072 82.731 71.0084 82.1767C78.2227 77.3121 86.0992 73.3568 94.4319 70.823C95.416 70.5252 96.4061 70.2469 97.4022 69.9882C97.3547 70.0403 97.3065 70.0946 97.2612 70.1473C93.3498 74.4766 89.9375 79.4121 87.1512 83.6765C86.9612 83.9827 86.5562 84.6094 86.3873 84.905C86.1528 85.4426 86.8541 85.8423 87.2093 85.4705C92.6621 80.0614 98.78 75.1455 105.853 72.0386C110.008 70.3064 114.78 68.9211 119.294 69.7543L119.405 69.7815C119.405 69.7815 119.411 69.7634 119.419 69.7408C119.429 69.7091 119.443 69.6684 119.443 69.6684L119.441 69.6676ZM85.5381 72.9436C81.2911 74.6524 77.1806 76.7058 73.2337 79.0299C76.3005 75.417 79.9043 71.6036 83.8082 68.1792C88.3946 64.1554 93.3995 60.6707 98.4391 58.6957C100.455 57.9122 102.562 57.3881 104.717 57.2214C106.544 57.1091 108.432 57.2154 110.248 57.4288C112.358 57.7123 115.366 58.2198 116.892 59.8946C116.516 59.8373 116.132 59.7973 115.748 59.7747C114.607 59.7061 113.491 59.6986 112.329 59.8517C111.185 60.0387 110.087 60.3939 109.03 60.8335C105.187 62.6064 101.599 65.5557 98.3366 68.9875C98.274 69.0019 98.2099 69.0132 98.148 69.0253C93.8369 69.9686 89.6261 71.2974 85.5381 72.9436ZM119.495 68.8034C119.404 69.0297 119.309 69.2544 119.24 69.5002C119.28 69.5085 119.318 69.5161 119.358 69.5244C119.358 69.5244 119.304 69.5568 119.26 69.5824C119.232 69.5982 119.21 69.6133 119.21 69.6133C119.217 69.593 119.223 69.5749 119.227 69.5538C119.2 69.5296 119.173 69.5055 119.146 69.4814C117.675 69.1647 116.179 69.1737 114.69 69.2831C111.578 69.5327 108.548 70.418 105.668 71.5997C99.2732 74.2994 93.622 78.4559 88.5221 83.1306C91.2489 79.0977 94.7328 74.362 98.5658 70.2454C98.7883 70.0078 99.01 69.7726 99.2332 69.5403C99.5295 69.2319 99.8274 68.9265 100.126 68.6263C103.104 65.6424 106.247 63.1207 109.381 61.6366C110.876 60.9738 112.425 60.5424 114.065 60.5183C115.059 60.4904 116.302 60.4798 117.452 60.6947C117.797 60.7596 118.134 60.844 118.454 60.9534C119.579 61.341 120.486 62.0505 120.766 63.3227C121.107 65.1732 120.196 67.0992 119.495 68.8034Z" fill="#BA3E05"/>
<path d="M103.932 61.3637C103.614 60.9158 102.093 61.4142 100.181 62.5137C99.8419 62.7075 99.4392 62.4225 99.495 62.0364C99.5305 61.7943 99.4935 61.5809 99.3751 61.4157C98.8789 60.7175 97.1385 61.1051 95.4848 62.2807C93.8311 63.4563 92.893 64.9736 93.3892 65.6719C93.5581 65.9117 93.8756 66.0225 94.2843 66.018C94.693 66.0135 94.8928 66.4998 94.6176 66.7977C93.8039 67.6777 93.4088 68.3806 93.6298 68.6905C94.0649 69.3005 96.723 68.1581 99.569 66.1356C102.415 64.1131 104.369 61.9768 103.936 61.3675L103.932 61.3637Z" fill="#FEB903"/>
<path d="M99.5967 118.591C99.9 119.996 100.091 121.526 100.098 123.162C100.11 125.583 99.8283 126.813 98.8466 129.667C101.063 129.216 104.316 127.21 105.987 125.179C108.033 122.69 108.245 121.369 109.289 118.549C107.246 118.724 103.729 118.903 99.5977 118.588L99.5967 118.591Z" fill="#BA3E05"/>
<path d="M99.596 118.591C94.1205 118.174 87.5733 116.888 81.9714 113.585C79.8231 112.317 77.8112 110.75 76.0551 108.82C75.4222 110.101 74.8531 111.769 74.385 113.931C74.1656 115.206 74.1484 116.39 74.295 117.487C76.4515 117.002 79.9373 116.503 84.1238 116.914C88.8512 117.382 94.4733 119.016 100.096 123.165C100.087 121.524 99.8982 119.999 99.5949 118.594L99.596 118.591Z" fill="#C16408"/>
<path d="M104.284 111.968C103.007 112.179 99.016 112.759 95.3573 111.665C90.5106 110.211 85.7832 106.852 84.1778 105.987C81.9415 104.78 78.5213 103.829 76.0586 108.821C77.8147 110.751 79.8235 112.317 81.9749 113.587C79.0855 111.215 80.9538 108.228 82.4915 108.569C89.0144 111.424 94.0814 113.025 98.0061 113.848C104.664 115.245 108.027 114.398 109.591 113.599C108.466 111.788 105.577 111.759 104.283 111.971L104.284 111.968Z" fill="#F87F05"/>
<path d="M100.098 123.162C94.4777 119.014 88.8526 117.379 84.1252 116.912C79.9387 116.5 76.4528 117 74.2964 117.484C74.6482 120.118 75.9605 122.258 77.8056 123.992C82.9758 128.852 91.5337 129.969 96.1701 130.234C96.9708 130.279 98.4519 129.9 99.1899 129.748C100.173 126.891 100.109 125.576 100.096 123.158L100.098 123.162Z" fill="#F87E05"/>
<path d="M88.5684 116.512C88.5684 116.512 90.4872 120.653 87.885 127.479" stroke="#BA3E05" stroke-width="0.634039" stroke-miterlimit="10" stroke-linecap="round"/>
<path d="M109.592 113.596C108.027 114.398 104.665 115.246 98.0075 113.845C94.0829 113.022 89.0158 111.421 82.4929 108.566C80.9542 108.228 79.0869 111.212 81.9763 113.584C87.5772 116.89 94.1254 118.172 99.6009 118.589C103.732 118.904 107.252 118.726 109.292 118.55C109.424 118.197 109.546 117.85 109.659 117.51C110.267 115.697 110.127 114.448 109.593 113.593L109.592 113.596Z" fill="#FFB803"/>
<path d="M105.986 125.182C108.175 122.819 109.287 118.552 109.287 118.552C109.419 118.198 109.541 117.852 109.654 117.512C110.262 115.699 110.122 114.45 109.589 113.594C108.463 111.784 105.575 111.754 104.281 111.967C103.004 112.178 99.0127 112.758 95.3539 111.663C90.5072 110.21 85.7799 106.851 84.1744 105.986C81.9411 104.78 78.521 103.828 76.0582 108.821C75.4254 110.103 74.8562 111.77 74.3881 113.932C74.1687 115.207 74.1516 116.391 74.2982 117.488C74.65 120.122 75.9623 122.262 77.8073 123.996C77.8073 123.996 94.9052 137.152 105.986 125.182Z" stroke="#BA3E05" stroke-width="0.634039" stroke-miterlimit="10"/>
</g>
</g>
<defs>
<linearGradient id="paint0_linear_97_44" x1="38.7908" y1="180.384" x2="183.927" y2="56.5212" gradientUnits="userSpaceOnUse">
<stop stop-color="#D13F05"/>
<stop offset="0.29" stop-color="#F67205"/>
<stop offset="0.37" stop-color="#F67705"/>
<stop offset="0.45" stop-color="#F68505"/>
<stop offset="0.54" stop-color="#F69C05"/>
<stop offset="0.56" stop-color="#F6A205"/>
<stop offset="0.6" stop-color="#F69005"/>
<stop offset="0.64" stop-color="#F67F05"/>
<stop offset="0.69" stop-color="#F67505"/>
<stop offset="0.76" stop-color="#F67205"/>
<stop offset="1" stop-color="#D13F05"/>
</linearGradient>
<linearGradient id="paint1_linear_97_44" x1="43.3024" y1="185.653" x2="188.419" y2="61.7689" gradientUnits="userSpaceOnUse">
<stop stop-color="#D13F05"/>
<stop offset="0.29" stop-color="#F67205"/>
<stop offset="0.37" stop-color="#F67705"/>
<stop offset="0.45" stop-color="#F68505"/>
<stop offset="0.54" stop-color="#F69C05"/>
<stop offset="0.56" stop-color="#F6A205"/>
<stop offset="0.6" stop-color="#F69005"/>
<stop offset="0.64" stop-color="#F67F05"/>
<stop offset="0.69" stop-color="#F67505"/>
<stop offset="0.76" stop-color="#F67205"/>
<stop offset="1" stop-color="#D13F05"/>
</linearGradient>
<linearGradient id="paint2_linear_97_44" x1="63.3806" y1="209.186" x2="208.517" y2="85.3225" gradientUnits="userSpaceOnUse">
<stop stop-color="#D13F05"/>
<stop offset="0.29" stop-color="#F67205"/>
<stop offset="0.37" stop-color="#F67705"/>
<stop offset="0.45" stop-color="#F68505"/>
<stop offset="0.54" stop-color="#F69C05"/>
<stop offset="0.56" stop-color="#F6A205"/>
<stop offset="0.6" stop-color="#F69005"/>
<stop offset="0.64" stop-color="#F67F05"/>
<stop offset="0.69" stop-color="#F67505"/>
<stop offset="0.76" stop-color="#F67205"/>
<stop offset="1" stop-color="#D13F05"/>
</linearGradient>
<linearGradient id="paint3_linear_97_44" x1="10.4412" y1="150.963" x2="170.581" y2="22.8331" gradientUnits="userSpaceOnUse">
<stop stop-color="white" stop-opacity="0"/>
<stop offset="0.26" stop-color="white"/>
<stop offset="0.76" stop-color="white"/>
<stop offset="1" stop-color="white" stop-opacity="0"/>
</linearGradient>
<linearGradient id="paint4_linear_97_44" x1="149.303" y1="111.294" x2="-11.8121" y2="44.361" gradientUnits="userSpaceOnUse">
<stop stop-color="#FFAF02"/>
<stop offset="1" stop-color="#F56D05"/>
</linearGradient>
<linearGradient id="paint5_linear_97_44" x1="29.4628" y1="29.229" x2="123.966" y2="118.101" gradientUnits="userSpaceOnUse">
<stop stop-color="white" stop-opacity="0"/>
<stop offset="0.26" stop-color="white"/>
<stop offset="0.76" stop-color="white"/>
<stop offset="1" stop-color="white" stop-opacity="0"/>
</linearGradient>
<linearGradient id="paint6_linear_97_44" x1="24.362" y1="85.0342" x2="151.965" y2="85.0342" gradientUnits="userSpaceOnUse">
<stop stop-color="#FFAF02"/>
<stop offset="1" stop-color="#F56D05"/>
</linearGradient>
<radialGradient id="paint7_radial_97_44" cx="0" cy="0" r="1" gradientUnits="userSpaceOnUse" gradientTransform="translate(189.587 188.367) rotate(45.4735) scale(4.7612 32.9838)">
<stop stop-color="white"/>
<stop offset="0.09" stop-color="white" stop-opacity="0.96"/>
<stop offset="0.24" stop-color="white" stop-opacity="0.85"/>
<stop offset="0.43" stop-color="white" stop-opacity="0.66"/>
<stop offset="0.66" stop-color="white" stop-opacity="0.41"/>
<stop offset="0.93" stop-color="white" stop-opacity="0.09"/>
<stop offset="1" stop-color="white" stop-opacity="0"/>
</radialGradient>
<linearGradient id="paint8_linear_97_44" x1="67.181" y1="60.0344" x2="125.818" y2="127.692" gradientUnits="userSpaceOnUse">
<stop stop-color="white"/>
<stop offset="1" stop-color="white" stop-opacity="0"/>
</linearGradient>
<linearGradient id="paint9_linear_97_44" x1="33.629" y1="28.4642" x2="64.9128" y2="59.6823" gradientUnits="userSpaceOnUse">
<stop stop-color="white"/>
<stop offset="1" stop-color="white" stop-opacity="0"/>
</linearGradient>
<clipPath id="clip0_97_44">
<rect width="187.94" height="187.023" fill="white" transform="translate(0.544434 0.406998)"/>
</clipPath>
</defs>
</svg>
