<?xml version="1.0" encoding="utf-8"?>
<!-- Generator: Adobe Illustrator 25.3.0, SVG Export Plug-In . SVG Version: 6.00 Build 0)  -->
<svg version="1.1" id="Capa_1" xmlns="http://www.w3.org/2000/svg" xmlns:xlink="http://www.w3.org/1999/xlink" x="0px" y="0px"
	 viewBox="0 0 241 193.67" style="enable-background:new 0 0 241 193.67;" xml:space="preserve">
<style type="text/css">
	.st0{fill:#FFF7E9;}
	.st1{fill:none;stroke:#EFE4D3;stroke-width:0.75;stroke-miterlimit:10;}
	.st2{fill:#EFE4D3;}
	.st3{fill:#FF923B;}
	.st4{fill:#CA7300;}
	.st5{fill:#B55300;}
	.st6{fill:#BD6000;}
	.st7{fill:#AA4500;}
	.st8{fill:#FF5766;}
	.st9{fill:#FF90A3;}
	.st10{fill:#D83743;}
	.st11{fill:#D85A6B;}
	.st12{fill:#FFB612;}
	.st13{fill:#C92A35;}
	.st14{fill:#C94555;}
	.st15{fill:#AB1A23;}
	.st16{fill:#C9580A;}
	.st17{fill:#FFDA1E;}
	.st18{fill:#FF8C04;}
	.st19{fill:#FFC511;}
	.st20{fill:#FF8201;}
	.st21{fill:#FF9C02;}
	.st22{fill:#FF6400;}
	.st23{fill:#FF8D01;}
	.st24{fill:#1B0F1A;}
	.st25{fill:#00550B;}
	.st26{fill:#FFA808;}
	.st27{fill:#BA896C;}
	.st28{fill:#B2B734;}
	.st29{fill:#BA8625;}
	.st30{fill:#B2A917;}
	.st31{fill:#FF9C09;}
	.st32{fill:#EF943F;}
	.st33{fill:#EFA25D;}
	.st34{fill:#E68C2E;}
	.st35{fill:#EFAB16;}
	.st36{fill:#FFC00E;}
	.st37{fill:#FFCE0F;}
	.st38{fill:#FFB10D;}
	.st39{fill:#FFC60E;}
	.st40{fill:#FFCE15;}
	.st41{fill:#CA6200;}
	.st42{fill:#005F16;}
	.st43{fill:#FFBB10;}
	.st44{fill:#FFEC29;}
	.st45{fill:#EFB90D;}
	.st46{fill:#E47104;}
	.st47{fill:#E48409;}
	.st48{fill:#A94500;}
	.st49{fill:#BD5200;}
	.st50{fill:#EF9E07;}
	.st51{fill:#007537;}
	.st52{fill:#13114C;}
	.st53{fill:#00622A;}
	.st54{fill:#004719;}
	.st55{fill:#00954D;}
	.st56{fill:#008641;}
	.st57{fill:#009245;}
	.st58{fill:#0D0F3F;}
	.st59{fill:#007F36;}
	.st60{fill:#006422;}
	.st61{fill:#00B15E;}
	.st62{fill:#D38F07;}
	.st63{fill:#C16F03;}
	.st64{fill:#E98E09;}
	.st65{fill:#C93530;}
	.st66{fill:#E04141;}
	.st67{fill:#942723;}
	.st68{fill:#B7222C;}
	.st69{fill:#78201D;}
	.st70{fill:#D8720C;}
	.st71{fill:#D86206;}
	.st72{fill:#FF7B8E;}
	.st73{fill:#FF997A;}
	.st74{fill:#FFCF71;}
	.st75{fill:#FFBE6B;}
</style>
<g>
	<path class="st51" d="M46.28,40.79l-0.01,0.1l0.01,0.17c-0.23,6.23-0.32,12.74,0.17,19.1C47.22,72.29,50.01,84,57.82,92.94l0.03,0
		c0.2,0.26,0.4,0.49,0.63,0.72c-0.52-0.31-1.01-0.61-1.54-0.88c-3.92-2.16-7.9-3.46-12.57-1.7c-1.13,0.44-2.09,1.1-2.78,1.97
		c-2.1,2.36-2.49,6-0.85,8.97c1.22,2.17,3.22,3.79,5.25,5.24c3.33,2.34,6.87,4.41,10.56,6.07l-0.1,0.02l-0.03,0
		c-1.78,0.81-3.81,1.06-5.75,1.51c-2.68,0.58-5.58,1.37-7.08,3.68l-0.18,0.34c-1.21,2.12-0.77,4.92,0.53,7
		c1.39,2.16,3.56,3.71,5.77,5.05c3.66,2.15,7.74,3.2,11.42,5.16c2.69,1.45,6.74,4.82,10,4.59c-0.77,0.06-1.51,0.12-2.3,0.21
		l-0.06-0.01c-2.49,0.18-5.02,0.41-7.51,0.63c-3.28,0.33-6.87,3.35-5.53,6.3c0.12,0.29,0.31,0.58,0.52,0.81
		c1.09,1.25,3.01,1.73,4.7,2.07c8.4,1.6,16.91,3.05,24.57,6.77c6.95,3.39,12.84,8.49,17.91,14.27c2.26,2.59,4.82,4.95,7.08,7.54
		c1.74,2.01,2.54,3.66,5.34,4.53l0.16,0.05l0.03,0c0.35,0.08,0.65,0.13,0.99,0.04l0.44-0.24c0.76-0.66,0.39-2.24-0.1-3.31
		c-0.99-2.14-1.73-4.38-2.21-6.68l0.01-0.03c-1.1-4.92-1.13-10.08-0.64-15.11c0.69-7.39,2.36-14.65,3.11-22.03
		c0.31-2.85,0.3-6.08-1.75-8.07c-0.64-0.63-1.45-1.04-2.32-1.23c-1.24-0.38-2.62-0.27-3.85,0.15c-2.03,0.74-3.67,2.41-4.77,4.31
		c0.1-0.29,0.22-0.6,0.29-0.89l0.01-0.07c1.31-3.84,2.56-7.69,3.84-11.54c1.22-3.66,2.45-7.38,2.73-11.23
		c0.25-3.59-0.39-9.61-3.7-11.85l-0.47-0.23l-0.03-0.04c-1.74-0.85-4-0.17-5.6,1.03c-1.71,1.22-2.97,2.87-4.63,4.13l-0.03,0.03
		l-0.23,0.2c2.83-7.45,2.78-15.95-0.09-23.39c-0.6-1.45-1.29-2.88-2.51-3.85l-0.06-0.04c-2.17-1.64-5.36-1.2-7.64,0.31
		c-2.21,1.48-3.73,3.76-5.16,6.02l-0.13,0.22c1.12-1.77-2.32-8.72-3.14-10.4c-1.64-3.4-3.81-6.44-6.46-9.11
		c-3.87-3.91-7.65-7.75-11.99-11.17c-1.14-0.9-9.47-5.75-12.55-7.98C46.71,41.32,46.27,40.92,46.28,40.79z"/>
	<path class="st52" d="M46.15,45.3c0.03-1.48,0.07-2.95,0.12-4.41l0.01,0.17C46.23,42.46,46.19,43.87,46.15,45.3z"/>
	<path class="st53" d="M66.6,104.11c-1.41-1.7-3-3.26-4.73-4.64c-1.23-0.94-2.55-1.81-4.08-2.03l-0.07-0.01
		c-0.19-0.02-0.38-0.03-0.56-0.03c-2.46,0-4.69,1.87-5.79,4.13c-0.16,0.32-0.29,0.65-0.42,0.98c-1.71-0.96-3.38-1.97-4.89-3.21
		c-1.49-1.24-2.84-2.74-3.76-4.47c-0.29-0.51-0.47-1.17-0.68-1.76c-1.89,2.12-2.39,5.27-1.29,8.04c-0.01,0-0.01,0-0.02-0.01
		c-0.39-0.97-0.57-2-0.57-3c-0.01-1.86,0.64-3.66,1.86-5.04c0.69-0.87,1.65-1.53,2.78-1.97c1.52-0.58,2.97-0.82,4.38-0.82
		c2.89,0,5.56,1.06,8.19,2.52c0.53,0.27,1.02,0.58,1.54,0.88c-0.23-0.23-0.43-0.46-0.63-0.72c1.47,0.71,3.04,1.1,4.5,1.81
		c1.59,0.75,2.97,1.82,4.24,3.03V104.11z M66.6,90.9c-1.52-3.02-3.4-5.89-5.38-8.62c-4.21-5.76-9-11.17-12.47-17.43
		c-0.85-1.52-1.62-3.09-2.3-4.69c-0.37-4.94-0.39-9.95-0.3-14.86c0.03-1.43,0.08-2.84,0.13-4.24c0.02,0.03,0.05,0.06,0.07,0.09
		l0.08,0.23c0.94,2.93,2.07,5.79,3.3,8.6c2.57,5.76,5.75,11.24,9.49,16.3c2.51,3.37,5.25,6.62,7.36,10.23V90.9z"/>
	<path class="st54" d="M49.97,109.47C49.97,109.47,49.97,109.46,49.97,109.47c-0.01-2.09-6.36-6.25-7.9-7.27
		c-0.58-0.38-1.16-0.75-1.76-1.1c-1.1-2.77-0.6-5.91,1.29-8.04c0.21,0.6,0.39,1.25,0.68,1.76c0.92,1.73,2.27,3.22,3.76,4.47
		c1.51,1.24,3.18,2.25,4.89,3.21c-0.77,2.12-0.89,4.46-0.96,6.74L49.97,109.47z"/>
	<path class="st54" d="M66.6,97.78c-1.27-1.21-2.65-2.28-4.24-3.03c-1.47-0.71-3.04-1.1-4.5-1.81l-0.03,0
		C50.01,84,47.22,72.28,46.45,60.16c0.68,1.6,1.45,3.17,2.3,4.69c3.46,6.25,8.26,11.67,12.47,17.43c1.98,2.74,3.86,5.61,5.38,8.62
		V97.78z"/>
	<path class="st55" d="M66.6,58.2c-4.84-5.17-10.29-9.8-16.17-13.73c-1.1-0.74-2.89-2-4.07-3.33l-0.08-0.25l0.01-0.1
		c0,0,0,0.01,0,0.01c0.01,0.14,0.44,0.53,1.12,1.01c3.08,2.24,11.41,7.09,12.55,7.98c2.34,1.85,4.53,3.81,6.65,5.85V58.2z"/>
	<path class="st56" d="M46.36,41.14c-0.02-0.03-0.05-0.06-0.07-0.09l-0.01-0.17L46.36,41.14z"/>
	<path class="st57" d="M0,93.33l0.03,0.09l0.1,0.14c2.93,5.42,6.12,11.03,9.73,16.21c6.74,9.96,15,18.56,26.14,22.26l0.03-0.01
		c0.3,0.12,0.58,0.22,0.89,0.3c-0.6,0-1.17-0.01-1.75,0.02c-4.43,0.12-8.48,1.01-11.58,4.86c-0.74,0.94-1.23,1.99-1.39,3.07
		c-0.6,3.07,0.89,6.37,3.78,8.08c2.13,1.24,4.65,1.62,7.1,1.84c4.01,0.33,8.07,0.32,12.05-0.12l-0.07,0.07l-0.03,0.01
		c-1.11,1.58-2.72,2.81-4.14,4.17c-2,1.84-4.09,3.97-4.2,6.69l0.02,0.38c0.04,2.42,1.81,4.58,3.96,5.71
		c2.27,1.15,4.9,1.37,7.46,1.41c4.2,0,8.2-1.15,12.32-1.33c0.8-0.03,1.74,0.01,2.75,0.04c2.82,0.1,6.12,0.21,8.09-1.14
		c-0.64,0.43-1.23,0.86-1.85,1.33l-0.06,0.02c-2.03,1.4-4.07,2.87-6.09,4.3c-2.63,1.92-4.18,6.3-1.56,8.15
		c0.25,0.18,0.56,0.33,0.85,0.43c1.56,0.53,3.44-0.04,5.04-0.59c7.96-2.85,15.95-5.88,24.36-6.55c7.61-0.59,15.2,0.8,22.43,3.2
		c3.22,1.07,6.59,1.8,9.81,2.87c2.5,0.84,4,1.85,6.83,1.18l0.16-0.03l0.03-0.01c0.35-0.11,0.61-0.22,0.87-0.46l0.25-0.42
		c0.32-0.94-0.8-2.11-1.74-2.78c-1.92-1.33-3.68-2.86-5.23-4.58l-0.02-0.03c-3.4-3.65-6.02-8.04-8.12-12.57
		c-3.12-6.65-5.33-13.68-8.4-20.35c-1.17-2.59-2.8-5.34-5.54-6.01c-0.86-0.21-1.76-0.16-2.6,0.11c-1.25,0.3-2.38,1.08-3.21,2.06
		c-1.36,1.66-1.93,3.9-1.91,6.07c-0.06-0.3-0.12-0.62-0.2-0.91l-0.02-0.06c-0.81-3.94-1.67-7.85-2.51-11.77
		c-0.79-3.73-1.6-7.52-3.3-10.95c-1.6-3.19-5.16-8-9.11-8.25l-0.52,0.04l-0.04-0.02c-1.92,0.15-3.51,1.86-4.27,3.69
		c-0.84,1.9-1.1,3.94-1.86,5.84l-0.02,0.04l-0.1,0.29c-1.33-7.78-5.63-15-11.8-19.9c-1.23-0.94-2.55-1.81-4.08-2.03l-0.07-0.01
		c-2.68-0.31-5.17,1.67-6.36,4.09c-1.14,2.37-1.3,5.08-1.38,7.72l-0.01,0.25c0.06-2.07-6.35-6.28-7.9-7.3
		c-3.11-2.07-6.48-3.58-10.08-4.53c-5.26-1.4-10.41-2.78-15.83-3.51C14.75,93.96,5.21,94,1.47,93.64C0.62,93.56,0.05,93.45,0,93.33z
		"/>
	<path class="st58" d="M38.64,150.41c-1.85,0-3.69-0.08-5.54-0.23c-0.79-0.07-1.59-0.16-2.38-0.29c0.79,0.13,1.58,0.21,2.36,0.29
		c1.85,0.15,3.69,0.23,5.54,0.23c2.18,0,4.36-0.11,6.51-0.35l-0.01,0C42.98,150.3,40.81,150.41,38.64,150.41z"/>
	<path class="st58" d="M48.16,168.51c-0.01,0-0.01,0-0.02,0c-1.35-0.02-2.72-0.09-4.05-0.33c1.32,0.23,2.69,0.3,4.04,0.32
		c0.01,0,0.01,0,0.02,0c4.19,0,8.19-1.15,12.3-1.32c0.21-0.01,0.42-0.01,0.64-0.01c0.64,0,1.35,0.03,2.1,0.05
		c0.76,0.03,1.54,0.05,2.33,0.05c2.16,0,4.32-0.21,5.76-1.2c-0.09,0.06-0.17,0.11-0.25,0.17c-1.43,0.85-3.46,1.03-5.5,1.03
		c-0.79,0-1.57-0.03-2.32-0.05c-0.75-0.03-1.47-0.05-2.11-0.05c-0.23,0-0.44,0-0.64,0.01C56.35,167.36,52.35,168.51,48.16,168.51z"
		/>
	<path class="st58" d="M63.96,180.52c-0.27,0-0.52-0.02-0.77-0.06c0.24,0.04,0.49,0.05,0.75,0.05c1.22,0,2.51-0.4,3.67-0.8
		c5.45-1.95,10.91-3.99,16.51-5.29c0,0,0,0.01,0.01,0.01c-5.6,1.3-11.06,3.34-16.5,5.29C66.48,180.12,65.18,180.52,63.96,180.52z"/>
	<path class="st59" d="M63.2,180.47c-0.22-0.04-0.43-0.09-0.63-0.15c-0.29-0.09-0.6-0.25-0.85-0.43c-0.96-0.67-1.36-1.68-1.36-2.78
		c0-1.93,1.24-4.15,2.92-5.37c2.02-1.43,4.06-2.9,6.09-4.3l0.06-0.02c0.53-0.41,1.06-0.78,1.6-1.15c0.09-0.05,0.18-0.11,0.27-0.17
		c-0.64,0.44-1.23,0.86-1.85,1.33c2.3-0.9,4.63-1.79,6.97-2.54c1.47,2.12,3.07,4.19,4.78,6.23c-3.2,1.84-6.19,4.01-9.41,5.86
		c-2.84,1.59-5.94,2.97-9.2,3.36C62.78,180.38,62.99,180.43,63.2,180.47z M44.09,168.18c-1.19-0.21-2.34-0.55-3.42-1.09
		c-2.15-1.13-3.92-3.29-3.96-5.71l-0.02-0.38c0.11-2.73,2.2-4.85,4.2-6.69c1.42-1.36,3.03-2.59,4.14-4.17l0.03-0.01l0.06-0.06
		c0.01,0,0.02,0,0.02,0l-0.07,0.07c4.83-1.88,9.94-3.1,15.09-3.59c-6.25-2.17-12.9-3.05-19.52-3.05c-0.56,0-1.12,0.01-1.68,0.02
		c-1.79,0.04-3.59,0.14-5.37,0.14c-1.5,0-2.99-0.07-4.46-0.3c-1.89-0.32-3.8-0.91-5.45-1.92c-0.51-0.29-0.98-0.76-1.47-1.16
		c-0.6,3.07,0.89,6.37,3.78,8.07c1.44,0.84,3.06,1.29,4.72,1.55c-1.66-0.27-3.29-0.71-4.74-1.56c-2.46-1.45-3.91-4.06-3.92-6.7
		c0-0.46,0.05-0.92,0.14-1.38c0.15-1.08,0.64-2.13,1.39-3.07c3.1-3.85,7.15-4.74,11.58-4.86c0.31-0.02,0.62-0.02,0.93-0.02
		c0.27,0,0.55,0,0.82,0c-0.31-0.08-0.6-0.18-0.89-0.3c1.6-0.13,3.14-0.59,4.75-0.72c0.39-0.03,0.77-0.05,1.15-0.05
		c3.01,0,5.96,1,8.81,1.99c-4.34-5.58-10.72-9.17-17.21-12.01c-6.47-2.8-13.27-5.02-19.36-8.61c-1.49-0.87-2.94-1.83-4.31-2.85
		c-2.79-4.02-5.32-8.26-7.69-12.49c-0.69-1.24-1.38-2.48-2.04-3.72c0.03,0.01,0.06,0.02,0.1,0.04l0.19,0.16
		c2.28,2.03,4.67,3.9,7.12,5.67c5.09,3.63,10.55,6.7,16.28,9.15c4.23,1.79,8.62,3.3,12.53,5.68c7.56,4.58,12.79,12.16,19.92,17.34
		c0.31,0.23,0.68,0.46,1.06,0.46c0.07,0,0.14-0.01,0.22-0.03c0.7-0.18,0.77-1.13,0.64-1.85c-0.66-3.68-3.09-7.54-1.4-10.88
		c0.36-0.75,1.07-1.42,1.91-1.42c0.01,0,0.01,0,0.01,0c0.47,0.02,0.92,0.26,1.31,0.52c3.96,2.7,4.91,7.84,6.58,12.44v6.37
		c0,7.74,2.43,15.22,6.45,22.32c-2.57-0.54-5.16-0.88-7.74-0.88c-1.39,0-2.78,0.1-4.17,0.31c-3.67,0.59-7.16,1.96-10.76,2.98
		c-2.37,0.65-4.83,1.16-7.26,1.16c-1.27,0-2.54-0.14-3.77-0.47c-0.76-0.22-1.7-0.78-2.62-1.22c0.04,2.42,1.81,4.58,3.96,5.7
		C41.75,167.64,42.91,167.97,44.09,168.18z"/>
	<path class="st60" d="M38.62,150.41c-1.85,0-3.69-0.08-5.54-0.23c-0.78-0.07-1.57-0.16-2.36-0.29c-1.66-0.27-3.28-0.71-4.72-1.55
		c-2.89-1.7-4.38-5-3.78-8.07c0.48,0.4,0.96,0.88,1.47,1.16c1.65,1.01,3.55,1.61,5.45,1.92c1.47,0.23,2.97,0.3,4.46,0.3
		c1.78,0,3.58-0.1,5.37-0.14c0.56-0.01,1.12-0.02,1.68-0.02c6.62,0,13.26,0.87,19.52,3.05c-5.16,0.5-10.26,1.71-15.09,3.59
		l0.07-0.07c-0.01,0-0.02,0-0.02,0l0.01,0C42.98,150.3,40.8,150.41,38.62,150.41z"/>
	<path class="st60" d="M48.14,168.51c-0.01,0-0.01,0-0.02,0c-1.35-0.02-2.72-0.09-4.04-0.32c-1.18-0.21-2.34-0.54-3.41-1.09
		c-2.15-1.13-3.92-3.29-3.96-5.71c0.92,0.43,1.86,1,2.62,1.22c1.23,0.33,2.5,0.47,3.77,0.47c2.43,0,4.89-0.51,7.26-1.16
		c3.6-1.02,7.1-2.39,10.76-2.98c1.39-0.22,2.77-0.31,4.17-0.31c2.59,0,5.17,0.34,7.74,0.88c1.02,1.82,2.15,3.6,3.38,5.36
		c-2.34,0.75-4.67,1.64-6.97,2.54c0.62-0.47,1.22-0.89,1.85-1.33c-0.09,0.06-0.18,0.12-0.27,0.17c0.08-0.06,0.16-0.11,0.25-0.17
		c-1.44,0.99-3.6,1.2-5.76,1.2c-0.79,0-1.57-0.03-2.33-0.05c-0.75-0.03-1.46-0.05-2.1-0.05c-0.23,0-0.44,0-0.64,0.01
		C56.34,167.36,52.33,168.51,48.14,168.51z"/>
	<path class="st60" d="M63.95,180.52c-0.26,0-0.51-0.02-0.75-0.05c-0.21-0.04-0.41-0.08-0.61-0.15c3.26-0.39,6.36-1.77,9.2-3.35
		c3.22-1.85,6.21-4.02,9.41-5.86c0.94,1.12,1.92,2.24,2.92,3.33c-5.6,1.31-11.06,3.34-16.51,5.29
		C66.46,180.12,65.16,180.52,63.95,180.52z"/>
	<path class="st60" d="M50.74,133.23c-2.85-0.99-5.81-1.99-8.81-1.99c-0.39,0-0.77,0.01-1.15,0.05c-1.6,0.13-3.14,0.59-4.75,0.72
		l-0.03,0.01c-11.14-3.71-19.4-12.3-26.14-22.26c1.37,1.02,2.82,1.98,4.31,2.85c6.09,3.59,12.89,5.81,19.36,8.61
		C40.02,124.06,46.4,127.65,50.74,133.23z"/>
	<path class="st61" d="M52.06,115.87c-0.53-0.45-0.94-1.02-1.22-1.68c-0.27-0.66-0.81-1.29-1.26-1.88
		c-0.45-0.59-0.93-1.17-1.41-1.71c-1.12-1.27-2.37-2.41-3.66-3.5c-1.33-1.08-2.72-2.06-4.17-2.94c-1.47-0.91-2.97-1.74-4.55-2.5
		c-1.57-0.73-3.16-1.42-4.78-2.02c-1.62-0.6-3.26-1.13-4.9-1.62c-6.74-1.99-13.73-3.21-20.73-3.61c-1.31-0.08-3.47-0.26-5.14-0.81
		l-0.2-0.18L0,93.33c0.05,0.12,0.62,0.24,1.47,0.31c3.75,0.36,13.29,0.32,14.71,0.52c5.41,0.73,10.56,2.11,15.83,3.51
		c3.6,0.95,6.97,2.46,10.08,4.53c1.54,1.02,7.89,5.18,7.9,7.26c0,0,0,0,0,0.01l0.01-0.22l0.14,0.43c0.14,0.68,0.26,1.41,0.43,2.08
		c0.09,0.39,0.19,0.73,0.31,1.11c0.23,0.72,0.45,1.44,0.73,2.13C51.7,115.32,51.88,115.59,52.06,115.87z"/>
	<path class="st61" d="M66.6,105.81c-1.54-2.42-3.36-4.64-5.56-6.47c-0.99-0.79-2.05-1.56-3.25-1.91c1.53,0.22,2.84,1.09,4.08,2.03
		c1.73,1.38,3.32,2.94,4.73,4.64V105.81z"/>
	<g>
		<path class="st3" d="M143.56,123.21c0.09-0.07,0.18-0.14,0.27-0.22C143.75,123.07,143.65,123.14,143.56,123.21L143.56,123.21z"/>
		<path class="st62" d="M131.68,59.77l-11.82,3.28c-32.02,6.45-47.99-9.35-48.12-20.92l0-0.29c0.1-11.62,8.58-10.67,8.58-10.67
			s-2.56,7.03,10.06,17.51c5.49,4.57,14.1,7.27,22.01,8.86l0.02,0C122.61,59.59,131.68,59.77,131.68,59.77z"/>
		<path class="st63" d="M112.41,57.55c-14.84,1.62-23.24-4.95-30.54-11.6c-4.53-4.13-7.66-4.53-9.57-4
			c-0.2,0.05-0.38,0.12-0.55,0.19l0-0.29c1.84-1.75,4.18-3.35,7.21-4.19c0.67-0.19,1.37-0.33,2.1-0.44
			c1.2,2.96,3.82,6.88,9.34,11.46C95.89,53.26,104.49,55.96,112.41,57.55z M72.74,36.12c0.18-0.44,0.37-0.83,0.58-1.2
			C73.11,35.31,72.91,35.71,72.74,36.12z"/>
		<path class="st12" d="M154.06,53.33c0.06,1.64-1.48,2.88-2.9,3.73c-3.92,2.32-8.21,3.96-12.66,5.16l-6.65-4.45
			c0,0-9.61-1.19-27.57-12.97c-17.96-11.76-27.24-7.95-32.53-2.96c-0.05-2.66,0.5-5.39,2-7.6c1.28-1.93,3.21-3.37,5.28-4.45
			c6.3-3.29,13.48-3.31,20.46-1.52c5.05,1.29,9.98,3.52,14.4,6.16c6.47,3.87,12.03,9.18,18.75,12.51c6.3,3.12,13.21,4.83,20.1,6.13
			C153.17,53.17,153.63,53.26,154.06,53.33z"/>
		<path class="st64" d="M134.14,55.03l-3.1,0.86c-12.41-5.63-24.97-19.59-31.56-27.6c3.59,0.91,7.1,2.3,10.43,3.97
			c0.94,1.35,1.89,2.69,2.89,3.99c5.39,6.91,12.14,12.49,19.19,17.35C132.71,54.09,133.42,54.57,134.14,55.03z"/>
		<path class="st12" d="M148.32,57.23c-2.5,1.47-5.64,1.48-8.44,0.59c-0.64-0.18-1.24-0.41-1.84-0.68c-2.11-0.91-4.09-2.2-6.04-3.54
			c-7.06-4.86-13.8-10.44-19.19-17.35c-3.04-3.94-5.63-8.27-8.85-12.05c4.49,1.77,9.09,3.12,13.77,4.08
			c-0.82-4-1.18-8.07-1.06-12.13c6.02,9.66,12.85,18.76,20.34,27.18c0.89,1,1.8,2.01,2.76,2.93c0.39,0.38,0.81,0.75,1.23,1.1
			c2.4,2,5.1,3.09,7.69,4.68C151.08,53.52,150.5,55.93,148.32,57.23z"/>
		<path class="st64" d="M139.91,53.42l-1.84,0.51c0.27-2.1,0.88-4.25,1.26-5.96c0.13-0.58,0.26-1.14,0.42-1.71
			c0.39,0.38,0.81,0.75,1.23,1.1c0.9,0.75,1.85,1.38,2.81,1.95C142.56,50.73,141.25,52.1,139.91,53.42z"/>
		<path class="st62" d="M156.48,52.88l11.82-3.28c30.74-11,36.28-32.78,30.42-42.75l-0.14-0.25c-6.09-9.9-12.86-4.71-12.86-4.71
			s5.82,4.7,0.41,20.19c-2.35,6.75-8.32,13.5-14.28,18.95l-0.02,0C164.17,48.04,156.48,52.88,156.48,52.88z"/>
		<path class="st63" d="M171.85,41.03c5.96-5.45,11.94-12.2,14.28-18.95c2.37-6.77,2.58-11.48,2.08-14.64
			c0.69-0.29,1.36-0.52,2.03-0.71c3.02-0.84,5.85-0.68,8.33-0.13c-0.04-0.09-0.1-0.17-0.15-0.26c0.06,0.08,0.11,0.17,0.16,0.25
			l0.14,0.25c-0.18,0.03-0.37,0.07-0.57,0.12c-1.92,0.53-4.39,2.49-6.14,8.37C189.2,24.8,185.4,34.75,171.85,41.03z M195.34,2.65
			c-0.64-0.53-1.33-1-2.07-1.37C193.95,1.61,194.64,2.06,195.34,2.65z"/>
		<path class="st12" d="M198.57,6.6c-7.11-1.54-17.02-0.02-26.34,19.32c-3.1,6.46-6.03,11.43-8.53,15.17
			c-5.02,7.51-8.4,10.17-8.4,10.17l-3.4,7.25c-3.97,1.14-8,1.9-12.06,2.07c-0.48,0.03-0.97,0.03-1.45,0.04
			c-1.66,0.01-3.61-0.26-4.41-1.7c0.33-0.29,0.68-0.6,1.01-0.89c1-0.89,1.99-1.8,2.97-2.72c4.15-3.9,8.01-8.11,11.09-12.9
			c0.94-1.47,1.76-3,2.54-4.57c2.52-5.16,4.33-10.72,7.06-15.82c2.42-4.54,5.5-9,9.15-12.71c5.05-5.14,11.21-8.82,18.31-9.26
			c2.33-0.14,4.72,0.1,6.82,1.08C195.36,2.23,197.24,4.29,198.57,6.6z"/>
		<path class="st64" d="M158.21,48.34l-18.3,5.09c3.4-3.37,6.55-6.99,9.14-11.02c0.95-1.47,1.76-3,2.54-4.57
			c2.26,0.33,4.45,1.22,6.67,1.9c1.79,0.55,3.61,0.98,5.45,1.35C161.51,44.37,159.63,46.73,158.21,48.34z"/>
		<path class="st65" d="M217.05,64.8l23.56,84.77c1.55,5.58-1.72,11.34-7.31,12.9l-110.87,30.82c-5.59,1.55-11.34-1.7-12.89-7.28
			l-23.56-84.77c-1.55-5.58,1.7-11.34,7.28-12.89l110.87-30.82C209.72,55.97,215.5,59.22,217.05,64.8z"/>
		<path class="st66" d="M116.24,193.1c-3.02-1.03-5.51-3.42-6.56-6.66c0-0.01-0.01-0.03-0.01-0.04c-0.01-0.04-0.02-0.08-0.04-0.12
			c0,0,0,0,0-0.01c0-0.01-0.01-0.02-0.01-0.03c0-0.01,0-0.01,0-0.01c0-0.01-0.01-0.02-0.01-0.03c0,0,0,0,0-0.01
			c-0.01-0.03-0.01-0.05-0.02-0.08c0,0,0-0.01,0-0.01c0-0.01,0-0.02-0.01-0.03c0-0.01,0-0.01,0-0.01c0-0.01,0-0.02-0.01-0.03
			c0-0.01,0-0.01,0-0.01c0-0.01-0.01-0.03-0.01-0.04l-21.79-78.37l0.96,3.47c0.79-0.21,1.63-0.42,2.53-0.65l21.45,77.15
			C113.32,189.84,114.59,191.72,116.24,193.1z"/>
		<path class="st67" d="M233.31,162.46L188,175.06l-6.74-24.23c3.19-10.39,5.5-20.99,6.45-31.87c0.87-10.05,0.54-20.21-0.95-30.19
			c12-2.29,23.97-4.36,35.28-5.99l0.23,0.83l16.3,58.65l2.03,7.31c0.09,0.32,0.16,0.65,0.22,0.98c0.34,1.92,0.13,3.83-0.53,5.56
			C239.16,159.1,236.65,161.53,233.31,162.46z"/>
		<path class="st10" d="M179.43,156.53l-17.44-62.75c1.07-0.23,2.15-0.46,3.24-0.68l16.05,57.74
			C180.68,152.74,180.07,154.64,179.43,156.53z"/>
		<path class="st68" d="M188,175.06l-3.18,0.88l-5.4-19.41c0.64-1.89,1.26-3.79,1.84-5.7L188,175.06z"/>
		<path class="st12" d="M170.93,179.8l13.89-3.86L155.65,71l-13.89,3.86L170.93,179.8z"/>
		<path class="st31" d="M184.82,175.94l-4.37,1.21l-22.91-82.43c1.47-0.32,2.95-0.64,4.44-0.95l17.44,62.75L184.82,175.94z"/>
		<path class="st69" d="M186.76,88.77c-7.22,1.38-14.45,2.84-21.55,4.33l-1.8-6.49l21.85-6.07
			C185.85,83.26,186.35,86.01,186.76,88.77z"/>
		<path class="st69" d="M222.05,82.78c-11.32,1.63-23.29,3.7-35.28,5.99c-0.41-2.76-0.91-5.51-1.5-8.24l33.51-9.32
			c0.02,0,0.03-0.01,0.05-0.02L222.05,82.78z"/>
		<path class="st68" d="M165.22,93.09c-1.09,0.23-2.17,0.46-3.24,0.68l-1.75-6.29l3.18-0.88L165.22,93.09z"/>
		<path class="st69" d="M147.87,96.85c-23.75,5.29-44.57,10.5-56.62,13.6l-0.98-3.51l56.07-15.59L147.87,96.85z"/>
		<path class="st69" d="M91.25,110.45c-0.89,0.23-1.74,0.45-2.53,0.65l-0.96-3.47c0.01,0,0.02-0.01,0.03-0.01l2.48-0.69
			L91.25,110.45z"/>
		<path class="st70" d="M157.54,94.73c-3.27,0.7-6.5,1.41-9.67,2.12l-1.53-5.5l9.52-2.65L157.54,94.73z"/>
		<path class="st71" d="M161.98,93.78c-1.49,0.32-2.97,0.63-4.44,0.95l-1.68-6.03l4.37-1.21L161.98,93.78z"/>
		<path class="st65" d="M215.53,38.31l7.2,25.9c0.84,3.02-0.94,6.17-3.96,7L87.79,107.63c-3.02,0.84-6.16-0.94-7-3.96l-7.2-25.9
			c-0.84-3.02,0.94-6.16,3.95-7l130.98-36.41C211.54,33.51,214.69,35.29,215.53,38.31z"/>
		<path class="st10" d="M160.23,87.49l3.18-0.88l-9.71-34.92l-3.18,0.88L160.23,87.49z"/>
		<path class="st12" d="M146.34,91.35l13.89-3.86l-10.25-36.86l-13.89,3.86L146.34,91.35z"/>
		<path class="st31" d="M155.86,88.7l4.37-1.21l-9.71-34.92l-4.37,1.21L155.86,88.7z"/>
		<path class="st66" d="M82.61,106.49c-0.81-0.68-1.44-1.58-1.77-2.66c0,0,0-0.01,0-0.01c0-0.01,0-0.01-0.01-0.02
			c0-0.01,0-0.01-0.01-0.02c0-0.01,0-0.01-0.01-0.02c0-0.01,0-0.01-0.01-0.02c0-0.01,0-0.01,0-0.01c0-0.01,0-0.01-0.01-0.02
			c0,0,0-0.01,0-0.01c0-0.01-0.01-0.02-0.01-0.03l-7.2-25.9c-0.84-3.02,0.94-6.16,3.95-7l58.55-16.28l0.54,1.94L78.93,72.47
			c-3.02,0.84-4.8,3.99-3.96,7l7.2,25.9C82.28,105.77,82.43,106.14,82.61,106.49z"/>
		<path class="st66" d="M172.48,46.46l-18.78,5.22l-0.54-1.94l55.36-15.39L171.4,44.67c0.32,0.52,0.64,1.03,0.92,1.53
			C172.38,46.29,172.43,46.38,172.48,46.46z"/>
		<path class="st72" d="M150.52,52.57l3.18-0.88l-0.54-1.94l-3.18,0.88L150.52,52.57z"/>
		<path class="st73" d="M208.87,34.27C208.87,34.27,208.87,34.27,208.87,34.27C208.86,34.27,208.87,34.27,208.87,34.27z"/>
		<path class="st74" d="M136.64,56.43l9.52-2.65l-0.54-1.94l-9.52,2.65L136.64,56.43z"/>
		<path class="st75" d="M146.16,53.78l4.37-1.21l-0.54-1.94l-4.37,1.21L146.16,53.78z"/>
		<path class="st67" d="M218.77,71.21l-33.51,9.32c-0.21-0.95-0.42-1.91-0.65-2.85c-2.61-10.87-6.53-21.53-12.13-31.21l37.43-10.4
			c1.87-0.52,3.78-0.03,5.18,1.13c-1.16-2.2-3.66-3.44-6.16-2.94c2.89-0.58,5.8,1.17,6.6,4.05l7.2,25.91
			C223.57,67.23,221.79,70.38,218.77,71.21z M208.83,34.28c-0.01,0-0.02,0-0.02,0S208.82,34.28,208.83,34.28z M208.68,34.31
			c-0.01,0-0.01,0-0.02,0C208.67,34.32,208.67,34.32,208.68,34.31z"/>
		<path class="st69" d="M215.09,37.19c-1.4-1.16-3.31-1.65-5.18-1.13l-37.43,10.4c-0.05-0.09-0.11-0.18-0.16-0.26
			c-0.28-0.5-0.6-1.01-0.92-1.53l37.13-10.32c0.02,0,0.02-0.01,0.03-0.01c0.01,0,0.01,0,0.02,0s0.02,0,0.02-0.01l0.01,0
			c0.01,0,0.02,0,0.02,0c0,0,0.01,0,0.02,0c0,0,0.01,0,0.02,0c0.01,0,0.01,0,0.02,0c0.01,0,0.01,0,0.02,0c0.01,0,0.01,0,0.02,0
			s0.02,0,0.02,0c0,0,0.01,0,0.02,0c0,0,0.01,0,0.02-0.01c0.01,0,0.01,0,0.02,0c0.01,0,0.02,0,0.02-0.01c0,0,0.01,0,0.02,0
			c0,0,0.01,0,0.01,0c0.01,0,0.02,0,0.02-0.01c0.01,0,0.01,0,0.02,0c0,0,0.01,0,0.02,0c0.01,0,0.01,0,0.02,0c0.01,0,0.02,0,0.02,0
			l0.02,0C211.42,33.75,213.93,34.99,215.09,37.19"/>
		<path class="st12" d="M191.68,69.52c-9.97-5.48-19.45-11.78-28.28-18.78c-1.48-1.19-2.96-2.39-4.26-3.76l-0.07-0.07
			c-0.72-0.7-6.25-5.92-10.62-5.62c-1.12,0.1-2.15,0.53-3.01,1.47c-4.5,4.97-5.84,10.76-5.84,10.76l10.07-2.8
			c1.02,1.97,2.37,3.82,3.76,5.6c5.25,6.77,11.19,13.21,18.39,18.17c4.09,2.83,8.57,5.18,12.54,8.17c-2.01-4.39-3.63-8.9-4.84-13.51
			C183.56,69.74,187.65,69.87,191.68,69.52z"/>
	</g>
</g>
</svg>
