<svg width="183" height="117" viewBox="0 0 183 117" fill="none" xmlns="http://www.w3.org/2000/svg">
<path d="M163.13 13.4405L150.37 14.1381L149.673 26.9043L148.976 14.1381L136.24 13.4405L148.976 12.7662L149.673 0L150.37 12.7662L163.13 13.4405Z" fill="#FFDA1E"/>
<path d="M182.839 32.3691L175.704 32.7644L175.308 39.9032L174.937 32.7644L167.778 32.3691L174.937 31.997L175.308 24.835L175.704 31.997L182.839 32.3691Z" fill="#FFDA1E"/>
<path d="M71.3274 108.85L64.1923 109.245L63.7972 116.384L63.4254 109.245L56.2671 108.85L63.4254 108.478L63.7972 101.315L64.1923 108.478L71.3274 108.85Z" fill="#FFDA1E"/>
<path d="M47.4119 45.251L42.4383 50.7853L47.4119 56.3196L41.8805 51.3666L36.3491 56.3196L41.2995 50.7853L36.3491 45.251L41.8805 50.2272L47.4119 45.251Z" fill="#FFDA1E"/>
<path d="M41.8805 27.2529L42.2756 50.3902L65.3773 50.7855L42.2756 51.204L41.8805 74.318L41.4621 51.204L18.3604 50.7855L41.4621 50.3902L41.8805 27.2529Z" fill="#FFDA1E"/>
<path d="M150.138 57.6221L150.371 71.7602L164.525 72.016L150.371 72.2485L150.138 86.4099L149.883 72.2485L135.752 72.016L149.883 71.7602L150.138 57.6221Z" fill="#FFDA1E"/>
<path d="M14.3863 7.37158L14.642 21.533L28.7726 21.7655L14.642 22.0213L14.3863 36.1594L14.1539 22.0213L0 21.7655L14.1539 21.533L14.3863 7.37158Z" fill="#FFDA1E"/>
</svg>
