<svg version="1.2" xmlns="http://www.w3.org/2000/svg" viewBox="0 0 148 156" width="148" height="156"><style>.a{opacity:.1}.b{fill:#ffb612}.c{fill:#ff9c00}.d{fill:#ca7300}.e{fill:#ea8c06}.f{fill:#ffda1e}.g{fill:#ff8c04}.h{fill:#ffa808}.i{fill:#ba896c}.j{fill:#b2b734}.k{fill:#ffc511}.l{opacity:.42;fill:#ff8c04}.m{fill:#965200}.n{fill:#bd6000}.o{fill:#f87d05}.p{fill:#ba3e05}.q{fill:#ffb803}.r{fill:#f87e05}.s{fill:#feb903}.t{fill:none;stroke:#ba3e05;stroke-miterlimit:10;stroke-width:.4}.u{fill:#f87f05}.v{fill:#c16408}.w{fill:none;stroke:#ba3e05;stroke-linecap:round;stroke-miterlimit:10;stroke-width:.4}.x{fill:none;stroke:#ff8c04;stroke-miterlimit:10;stroke-width:.7}</style><path class="a" d="m72.2 154.1c28.6 0 51.8-2.1 51.8-4.7 0-2.7-23.2-4.8-51.8-4.8-28.6 0-51.8 2.1-51.8 4.8 0 2.6 23.2 4.7 51.8 4.7z"/><path class="b" d="m78.8 90.3h-11.4l-7.9 39.4h27.1z"/><path class="c" d="m78.8 90.3h-6.3l6.3 39.4h7.8z"/><path class="d" d="m82.7 101h-20.5c-0.6 0-1.1-0.5-1.1-1.1v-4.2c0-0.6 0.5-1.1 1.1-1.1h20.5c0.6 0 1.1 0.5 1.1 1.1v4.2c0 0.6-0.5 1.1-1.1 1.1z"/><path class="e" d="m98.9 148.1h-50.7c-1.8 0-3.1-1.6-2.8-3.4l2.8-12.8c0.3-1.3 1.4-2.2 5-2.2h41.3c3 0 4.1 0.9 4.3 2.2l2.8 12.8c0.4 1.8-1 3.4-2.7 3.4z"/><path class="d" d="m101.6 144.7l-2.8-12.8c-0.2-1.3-1.4-2.2-2.7-2.2h-17.3l3 18.4h17c1.8 0 3.2-1.6 2.8-3.4z"/><path class="e" d="m83.8 98.4h-22.7c-0.6 0-1.2-0.5-1.2-1.2v-4.7c0-0.7 0.6-1.2 1.2-1.2h22.7c0.6 0 1.2 0.5 1.2 1.2v4.7c0 0.7-0.6 1.2-1.2 1.2z"/><path class="b" d="m34.9 50.9l-9-2.4-3.3-0.9c-0.8-0.2-1.6 0.3-1.6 1v0.3c0.5 2.3 2.1 6.3 6.6 9.3 2 1.4 4.7 2.8 7.4 4 5.8 2.5 11.7 4.3 11.7 4.3v-12.6z"/><path class="f" d="m27.5 58.2c-2.5-1.7-4.1-3.7-5.1-5.6-0.7-1.4-1.2-2.7-1.4-3.7v-0.3c0.5 0.4 1 0.8 1.6 1.2 0.7 2.3 2.3 5.8 6.3 8.4 1.7 1.2 3.8 2.3 6 3.3v0.7c-2.6-1.2-5.3-2.6-7.4-4z"/><path class="g" d="m22.6 49.8q-0.1-0.5-0.2-0.9l-0.1-0.3c0.1-0.3 0.3-0.7 0.7-0.8l2.8 0.7h0.1c2.5 1.8 5.8 3.5 9 5v1.4c-5.8-1.4-9.7-3.4-12.3-5.1z"/><path class="h" d="m21 48.6c0-0.5 0.6-1 1.2-1q0.2 0 0.4 0.1l0.4 0.1c-0.4 0.1-0.6 0.5-0.7 0.8l0.1 0.3q0.1 0.4 0.2 0.9-0.9-0.6-1.6-1.2z"/><path class="b" d="m34.9 39.9l-11-3.1-3.8-1.1c-0.8-0.2-1.6 0.3-1.8 0.9q-0.1 0.3 0 0.6c0.6 2.7 2.2 7.5 7.2 11l0.4 0.3c2.5 1.8 5.8 3.5 9 4.9 6.1 2.8 11.7 4.6 11.7 4.6v-14.9z"/><path class="i" d="m25.9 48.5q-0.1 0-0.1 0z"/><path class="j" d="m25.5 48.2l0.3 0.3c-0.1-0.1-0.2-0.2-0.3-0.3z"/><path class="k" d="m25.9 48.5c2.5 1.8 5.8 3.5 9 4.9-3.2-1.4-6.5-3.1-9-4.9z"/><path class="f" d="m25.9 48.5h-0.1l-0.3-0.3c-3.4-2.4-5.3-5.5-6.3-8-0.4-1.2-0.7-2.2-0.9-3q0-0.1 0-0.2 0-0.2 0-0.4c0.4 0.3 0.9 0.7 1.5 1 0.6 2.8 2.4 7.3 7.1 10.7 2.2 1.6 5.1 3.2 8 4.5v0.7c-3.2-1.5-6.5-3.2-9-5z"/><path class="g" d="m19.8 37.6q-0.1-0.2-0.1-0.4-0.1-0.3 0-0.6c0.1-0.3 0.4-0.6 0.7-0.8l0.4 0.1 3.1 0.9c3.1 2.2 7.2 4.4 11 6.1v2c-6.4-1.6-11.9-5-15.1-7.3zm-0.1-1.9q0.2 0 0.4 0-0.2 0-0.4 0z"/><path class="h" d="m18.3 36.6q0 0 0.1 0c0.1-0.5 0.7-0.9 1.3-0.9q0 0 0 0 0.2 0 0.4 0l0.4 0.1c-0.4 0.2-0.7 0.5-0.8 0.8q-0.1 0.3 0 0.6c0 0.2 0.1 0.3 0.1 0.4q-0.9-0.5-1.5-1z"/><path class="b" d="m34.9 27.2l-17.4-5c-1.1-0.3-2.2 0.6-2 1.7 0.6 3.1 2.5 8.5 7.9 12.6q0.3 0.1 0.5 0.3c3.1 2.2 7.2 4.4 11 6.1 6.2 2.8 11.7 4.7 11.7 4.7v-17z"/><path class="j" d="m23.9 36.8q-0.1-0.1-0.2-0.1c0.1 0 0.1 0.1 0.2 0.1z"/><path class="f" d="m23.9 36.8q-0.1-0.1-0.2-0.1-0.1-0.1-0.3-0.2c-5.4-4.1-7.3-9.6-7.9-12.6-0.2-0.9 0.6-1.7 1.5-1.7q0.2 0 0.5 0l0.6 0.2c-0.5 0.3-0.8 0.9-0.7 1.5 0.7 3.1 2.5 8.5 8 12.6 2.6 2 6.1 3.9 9.5 5.5v0.9c-3.8-1.7-7.9-3.9-11-6.1z"/><path class="l" d="m32.5 61l3.7 1.7v-35.1l-3.7-1.1z"/><path class="b" d="m98.2 53.9v12.6c0 0 5.9-1.8 11.7-4.3 2.7-1.2 5.3-2.5 7.4-3.9 4.5-3.1 6-7.1 6.5-9.4l0.1-0.3c-0.1-0.6-0.9-1.2-1.7-0.9l-3.2 0.8-9.1 2.4z"/><path class="f" d="m109.9 62.2v-0.6c2.2-1.1 4.3-2.2 6-3.3 4-2.7 5.7-6.2 6.3-8.5q0.9-0.6 1.6-1.1v0.2c-0.2 1-0.6 2.3-1.4 3.7-1 1.9-2.6 3.9-5.1 5.6-2.1 1.4-4.7 2.8-7.4 4z"/><path class="g" d="m109.9 54.9v-1.4c3.2-1.5 6.5-3.2 9-5h0.1l2.8-0.7c0.4 0.1 0.7 0.5 0.7 0.8v0.3q-0.1 0.4-0.3 0.9c-2.5 1.7-6.5 3.7-12.3 5.1z"/><path class="h" d="m122.2 49.8q0.2-0.5 0.3-0.9v-0.3c0-0.3-0.3-0.7-0.6-0.8l0.3-0.1q0 0 0 0 0.2-0.1 0.4-0.1c0.6 0 1.2 0.5 1.3 1q-0.7 0.6-1.7 1.2z"/><path class="b" d="m98.2 43.1v15c0 0 5.7-1.9 11.7-4.6 3.2-1.5 6.5-3.2 9-5l0.4-0.2c5-3.6 6.7-8.4 7.2-11.1q0.1-0.3 0-0.5c-0.2-0.7-1-1.1-1.8-0.9l-3.8 1-11 3.1z"/><path class="i" d="m118.9 48.5h0.1q0 0-0.1 0z"/><path class="j" d="m119 48.5l0.3-0.2c-0.1 0-0.2 0.1-0.3 0.2z"/><path class="k" d="m109.9 53.5c3.2-1.5 6.5-3.2 9-5-2.5 1.8-5.8 3.5-9 5z"/><path class="f" d="m109.9 53.5v-0.7c2.9-1.3 5.8-2.9 8-4.5 4.8-3.4 6.5-7.9 7.2-10.7 0.5-0.3 1-0.7 1.4-1q0 0.2 0 0.4 0.1 0.1 0 0.2c-0.2 0.8-0.4 1.8-0.9 3-1 2.5-2.9 5.6-6.3 8l-0.3 0.3h-0.1c-2.5 1.8-5.8 3.5-9 5z"/><path class="g" d="m109.9 44.9v-2c3.8-1.7 7.9-3.9 11-6.1l3.1-0.9 0.4-0.1c0.4 0.2 0.6 0.5 0.7 0.8q0.1 0.3 0.1 0.6c0 0.2-0.1 0.3-0.1 0.4-3.2 2.3-8.8 5.7-15.2 7.3zm14.9-9.2c0.1 0 0.2 0 0.4 0q-0.2 0-0.4 0z"/><path class="h" d="m125.1 37.6q0-0.2 0.1-0.4 0-0.3-0.1-0.6c-0.1-0.3-0.3-0.6-0.7-0.8l0.3-0.1h0.1c0.1 0 0.2 0 0.4 0q-0.1 0 0 0c0.6 0 1.1 0.4 1.3 0.9q0 0 0 0-0.6 0.5-1.4 1z"/><path class="b" d="m98.2 30.6v17c0 0 5.5-1.9 11.7-4.7 3.8-1.7 7.9-3.9 11-6.1q0.3-0.2 0.5-0.3c5.5-4.1 7.3-9.5 7.9-12.6 0.3-1.1-0.8-2-1.9-1.7l-17.5 5z"/><path class="j" d="m120.9 36.8q0.2-0.1 0.3-0.1c-0.1 0-0.2 0.1-0.3 0.1z"/><path class="k" d="m109.9 42.9c3.8-1.7 7.9-3.9 11-6.1-3.1 2.2-7.2 4.4-11 6.1z"/><path class="f" d="m109.9 42.9v-0.9c3.4-1.7 6.9-3.6 9.6-5.6 5.4-4 7.3-9.5 7.9-12.5 0.1-0.7-0.2-1.2-0.7-1.5l0.7-0.2q0.2-0.1 0.4-0.1c0.9 0 1.7 0.8 1.5 1.8-0.6 3-2.5 8.4-7.9 12.5q-0.2 0.1-0.3 0.2-0.1 0.1-0.2 0.2c-3.1 2.2-7.2 4.4-11 6.1z"/><path class="l" d="m112.4 61l-3.7 1.7v-35.1l3.7-1.1z"/><path class="b" d="m72.6 93.8c-20.9 0-37.7-16.9-37.7-37.7v-41.1h75.4v41c0 20.9-16.9 37.8-37.7 37.8z"/><path class="c" d="m94.1 15v41c0 18.1-12.7 33.2-29.6 36.9 2.6 0.6 5.3 0.9 8.1 0.9 20.8 0 37.7-16.9 37.7-37.7v-41.1z"/><path class="f" d="m38 56.1v-41.1h-3.2v41c0 20.9 16.9 37.8 37.8 37.8q0.7 0 1.5-0.1c-20.1-0.8-36.1-17.3-36.1-37.6z"/><path class="e" d="m115.2 21.5h-83.7c-0.8 0-1.5-0.7-1.5-1.5v-10c0-0.8 0.7-1.4 1.5-1.4h83.7c0.8 0 1.4 0.6 1.4 1.4v10c0 0.8-0.6 1.5-1.4 1.5z"/><path class="b" d="m107.1 19h-77.1v-7.7c0-1.5 1.2-2.7 2.7-2.7h77.1v7.6c0 1.5-1.2 2.8-2.7 2.8z"/><path class="f" d="m31.2 12.5c0-1.5 1.2-2.7 2.7-2.7l45-1.2h-47.5c-0.8 0-1.4 0.6-1.4 1.4v10.3z"/><path class="d" d="m115.2 8.6h-21.1v12.9h21.1c0.8 0 1.4-0.7 1.4-1.5v-10c0-0.7-0.6-1.4-1.4-1.4z"/><path class="m" d="m116.6 19h-22.5v2.5h21.1c0.8 0 1.4-0.6 1.4-1.4z"/><path class="d" d="m74 74.1c11.1 0 20.1-9 20.1-20.1 0-11.1-9-20.1-20.1-20.1-11.1 0-20.1 9-20.1 20.1 0 11.1 9 20.1 20.1 20.1z"/><path class="n" d="m83.5 36.2c1.7 3.8 2.7 8.1 2.7 12.7 0 12.3-7 22.6-16.4 24.7q2.1 0.5 4.2 0.5c11.1 0 20.1-9 20.1-20.1 0-7.7-4.3-14.4-10.6-17.8z"/><path class="o" d="m86.4 52.1c-0.6-1.7-1.7-3.3-4-3.3 0 0 2.4 1.2 2.2 3.4 0 0.1 0.9 2.7 1.8-0.1z"/><path class="o" d="m84.6 52.3c0.2-2.3-2.2-3.4-2.2-3.4 2.3-0.1 3.4 1.5 4 3.3 0 0 0.8 1.5 1.7-1.1q-0.1-0.4-0.2-0.8c-0.9-4.1-5-3.4-5.6-2.8-0.9 1-0.5 2.9-0.5 2.9 0.9 0.2 1.2 0.9 1.4 1.7-0.1 0 0.5 2 1.4 0.2z"/><path class="p" d="m84.6 52.3q0 0.6-0.4 1.3c0.3 0.8 0.3 2.2-0.7 4.4 0 0 2-0.8 2.9-5.7q0-0.1 0-0.1c-0.9 2.7-1.8 0.1-1.8 0.1z"/><path class="p" d="m82.6 55.7c-0.1 0.1 0 0.1 0 0.1 0.8-0.8 1.3-1.6 1.6-2.3q0.3-0.7 0.4-1.3c-1 1.9-1.5-0.1-1.5-0.1 0.2 1.3-0.3 3-0.5 3.6z"/><path class="p" d="m86.4 52.1q0 0.1 0 0.2c0.5 1.7 0.5 3.6 0.5 4.2 0 0 0.1 0 0.1 0 0.4-0.5 1.5-2.3 1-5.4-0.8 2.6-1.6 1-1.6 1z"/><path class="p" d="m88.2 51.1c0.1 0.8 0.1 1.7 0 2.5-0.1 1.1-0.5 2.1-1.1 3 0 0.1-0.2 0.1-0.2 0q-0.1-0.1 0-0.1v-0.2c0-1.3-0.1-2.7-0.5-4h0.1q-0.1 1.2-0.5 2.4c-0.4 1.1-0.9 2.1-1.8 2.8q-0.3 0.3-0.7 0.5v-0.1c0.3-0.7 0.5-1.4 0.7-2.1 0.1-0.7 0.2-1.5 0-2.2q-0.2 0.5-0.5 1-0.4 0.7-1 1.3c-0.1 0.1-0.3 0-0.3-0.2q0.1-0.2 0.2-0.5c0.4-1.4 1-4-0.8-4.8-0.3-1-0.4-2.3 0.3-3.1q0.2-0.2 0.4-0.3c1.2-0.5 2.7-0.3 3.7 0.4 1.3 0.8 1.8 2.3 2 3.7zm-0.3 0c-0.1-0.5-0.2-1-0.4-1.4-0.6-1.9-2.4-2.8-4.3-2.4-0.3 0-0.6 0.1-0.8 0.3q-0.2 0.3-0.3 0.6-0.1 0.3-0.2 0.7-0.1 0.7-0.1 1.5c2.3 0.4 1.5 3.8 0.9 5.4 0-0.1-0.1-0.1-0.1-0.1q0.2-0.2 0.3-0.4c0.5-0.5 1-1.1 1.3-1.8 0.3 1.1 0.1 2.3-0.3 3.4q-0.1 0.6-0.4 1.1v-0.1c0.7-0.4 1.1-1.1 1.5-1.8l0.2-0.3q0.1-0.3 0.2-0.6c0-0.1 0.2-0.4 0.2-0.6 0.2-0.4 0.4-1.1 0.5-1.5q0.1-0.4 0.3-0.9c0.5 1.4 0.6 2.9 0.6 4.3q0 0 0 0c0.3-0.5 0.6-1.1 0.7-1.7 0.4-1.2 0.4-2.5 0.2-3.7z"/><path class="p" d="m82.4 48.8c2.1 0.1 3.9 1.6 4.3 3.7 0 0-0.2-0.2-0.3-0.2-0.1 0-0.2 0.4-0.2 0.4 0-0.5-0.2-1.3-0.4-1.7-0.6-1.2-2-2-3.3-2.1z"/><path class="p" d="m83.4 49.7c0.9 0.9 1.7 2.3 1.2 3.6l-0.4-0.1q0.1-0.2 0.1-0.4c0.2-0.8-0.1-1.6-0.4-2.3q-0.2-0.4-0.5-0.7z"/><path class="q" d="m82.4 56c1.4-2.9 0.5-5.4-0.2-6.6-0.2 0.3-0.3 0.4-0.3 0.4-1-1.1-4.6-1.5-8.9 0.4-1.3 0.7-2.7 0.9-4 1 0 0-1 2.4-0.8 4.3 0 0.2-0.2 0.3-0.4 0.2-0.4-0.2-1.1-0.7-1.4-1.6-0.1-0.1-0.1-0.2-0.1-0.3q-0.1-0.3-0.2-0.5c0-0.1 0-0.1 0-0.1-0.4-1.4-1.3-1.9-2-1.8-0.8 0.1-1.5 0.8-1.6 2.2 0.1 4.1 2.4 3.9 2.4 3.9 0 0 1 4.1 4.1 6.7 4.1 3.5 10.1 2.9 11.7-0.7 1.5-2.7-0.3-3.1 1.7-7.5z"/><path class="o" d="m82.3 44.2c-2.7-1.6-11.3-3.3-15-0.4-0.8 0.6-1.4 1.3-2 2 0 0-0.6 1.1 1.1 1.4 1.6 0.3 2.1 0 2.1 0 0 0 0 0.7 1.2 0.6 0 0 0.2 0.5 1.1 0.6 0 0 1.9 1 1.9 2 0.1 0 0.2-0.1 0.3-0.2 4.3-1.9 7.9-1.5 8.9-0.4 0 0 0.1-0.1 0.3-0.4 0.7-1 2.4-3.9 0.1-5.2z"/><path class="p" d="m70.8 48.4c-0.3-0.1-0.6-0.2-0.7-0.2-0.1-0.1-0.1-0.2 0-0.3q1.2-0.8 2.2-1.7v-0.1q-0.6 0.3-1.2 0.6-0.9 0.5-1.9 1.1 0 0-0.1 0-0.4-0.1-0.5-0.2c0-0.1 0-0.2 0.1-0.2 1.5-1 3.1-1.9 4.6-3q-0.9 0.4-1.8 0.9-1.7 1-3.4 2-0.1 0.1-0.2 0.1c-0.3 0-0.8-0.1-1.5-0.2-0.9-0.2-1.2-0.6-1.2-0.9 0-0.1-0.1-0.2-0.2-0.1-1.1 1.4-1.6 2.7-1.7 3.3 0 0.1 0.1 0.2 0.1 0.2 0.3 0 0.7 0 1.3-0.2 0.2-0.1 0.3 0.1 0.2 0.2-0.2 0.2-0.5 0.5-0.6 0.7 0 0 0 0.1 0.1 0.1 0.4 0.2 1.4 0.5 2.8 0.6 0.5 0.1 1.2 0.1 1.8 0.1 1.1-0.1 2.4-0.3 3.6-0.7q0.1-0.1 0.1-0.2c0-0.9-1.6-1.8-1.8-1.9q-0.1 0-0.1 0z"/><path class="p" d="m81.9 49.8c0.7-1.2 2-3.6 1-4.9-0.3-0.5-0.9-0.7-1.4-0.9-1.2-0.4-2.3-0.7-3.5-1-3.2-0.6-7.8-1-10.5 1-1.9 1.4-3.4 3.4-4 5.7l-0.2-0.2c0.3 0 0.5 0 0.8 0 1-0.2 1.9-0.6 2.7-1.2l0.1 0.1c-1 0.7-2 1.4-3.3 1.5q-0.2 0-0.4 0l-0.1-0.1c0-0.1 0-0.3 0-0.4 0.3-1.2 0.9-2.2 1.5-3.2 1-1.3 2.2-2.5 3.7-3.2 2.8-1.5 6.8-1.1 9.8-0.4 1.5 0.3 3 0.8 4.4 1.5 0.2 0.1 0.5 0.4 0.7 0.6 0.8 1.1 0.3 2.5-0.3 3.6q-0.4 0.8-1 1.6z"/><path class="r" d="m75.2 66.5c0 0-10.5-4.9-7.4-9.8 1.8-2.9 1.6-5.2 1.2-5.5-0.4-0.3 0.2 1.4-1.4 1.7-1.5 0.3-1.2 1.2-1.2 1.2 0 0 0.1 2.9-1.5 3.5 0.8 2.9 3.4 8.5 10.3 8.9z"/><path class="p" d="m83.4 46.4c-0.4-1.3-1.6-2-3-2-0.8 0-1.7 0.3-2.5 0.6-0.5 0.2-1 0.4-1.5 0.7q-2.2 1.2-4.4 2.3c-1.6 0.8-3.2 1.6-4.9 2.1-0.6 0.2-1.3 0.4-2 0.4q-0.3 0-0.7 0v-0.1q0.4 0 0.7-0.1c0.6-0.1 1.3-0.4 1.9-0.6q2.4-1 4.8-2.2c1.3-0.6 2.8-1.4 4.2-2 1.3-0.8 2.9-1.4 4.5-1.4 0.9 0.1 1.8 0.4 2.4 1.1q0.5 0.5 0.6 1.2z"/><path class="s" d="m73.6 47.9c0.9-0.3 1.6-0.7 1.5-0.9-0.1-0.2-0.8-0.1-1.7 0.3-0.9 0.3-1.6 0.7-1.5 0.9 0.1 0.2 0.8 0 1.7-0.3z"/><path class="s" d="m71 44.7c-0.1-0.2-0.5 0-1.1 0.3-0.1 0-0.2 0-0.2-0.1q0-0.2 0-0.2c-0.2-0.2-0.7-0.1-1.2 0.2-0.5 0.4-0.8 0.8-0.6 1q0.1 0.1 0.3 0.1c0.1 0 0.2 0.2 0.1 0.2-0.3 0.3-0.4 0.5-0.3 0.6 0.1 0.2 0.9-0.2 1.7-0.7 0.9-0.6 1.4-1.2 1.3-1.4z"/><path class="s" d="m73.9 46.2c-0.1-0.1-0.4-0.1-0.8 0-0.1 0-0.2-0.1-0.1-0.2q0.1-0.1 0-0.2c0-0.2-0.9-0.1-1.8 0.3-1 0.4-1.7 0.8-1.6 1 0 0.1 0.3 0.1 0.8 0.1 0.1-0.1 0.2 0.1 0.1 0.2q-0.1 0.1-0.1 0.1c0.1 0.2 0.9 0 1.9-0.3 0.9-0.4 1.7-0.9 1.6-1z"/><path class="o" d="m66.7 52.3c1.1 1.1 1.7 0.5 1.9-0.1 0.2-0.6 0.4-1 0.4-1q-1 0-1.8-0.1c-1.4-0.1-2.5-0.4-2.8-0.6-0.3 0.6-0.4 0.9-0.4 0.9q0.1 0 0.1 0v-0.2c0 0 0.9-0.5 2.6 1.1z"/><path class="p" d="m66.1 53.2c0 0 0 0.1 0 0.1q0.1 0.2 0.1 0.5 0.1 0.2 0.2 0.3c0.3 0.9 1 1.4 1.4 1.6 0.2 0.1 0.4 0 0.3-0.2-0.1-1.1 0.2-2.4 0.5-3.3-0.2 0.6-0.8 1.2-1.9 0.1-1.8-1.6-2.6-1.1-2.6-1.1v0.2c0.8-0.1 1.6 0.5 2 1.8z"/><path class="t" d="m70.7 54.7l4.3 1c0 0-0.4 2.5-2.6 2.1-2.4-0.5-1.7-3.1-1.7-3.1z"/><path class="u" d="m71.7 54.9l-1-0.2c0 0-0.6 2.6 1.7 3.1q0.3 0 0.6 0c-1.7-0.6-1.4-2.5-1.3-2.9z"/><path class="t" d="m70.7 54.7l4.3 1c0 0-0.4 2.5-2.6 2.1-2.4-0.5-1.7-3.1-1.7-3.1z"/><path class="p" d="m73.2 57c0.3 0.1 0.6-0.2 0.7-0.6 0.1-0.4 0.1-0.8-0.2-0.9-0.2-0.1-0.5 0.2-0.7 0.6-0.1 0.4 0 0.8 0.2 0.9z"/><path class="t" d="m81.9 57.5l-3.6-0.8c0 0-0.6 2.1 1.2 2.5 1.9 0.5 2.4-1.7 2.4-1.7z"/><path class="u" d="m79.1 56.9l-0.8-0.1c0 0-0.5 2.2 1.5 2.5q0.3 0 0.5 0c-1.5-0.5-1.3-2.1-1.2-2.4z"/><path class="t" d="m81.9 57.5l-3.6-0.8c0 0-0.6 2.1 1.2 2.5 1.9 0.5 2.4-1.7 2.4-1.7z"/><path class="p" d="m79.1 58.5c0.2 0.1 0.5-0.2 0.5-0.6 0.1-0.4 0-0.8-0.2-0.8-0.3-0.1-0.5 0.2-0.6 0.6-0.1 0.4 0 0.8 0.3 0.8z"/><path class="t" d="m79 57.9c0.1 0 0.3-0.1 0.3-0.3 0-0.2 0-0.4-0.1-0.4-0.1 0-0.2 0.1-0.3 0.3 0 0.2 0.1 0.4 0.1 0.4z"/><path class="p" d="m70 53.3c0 0 0.9-1.8 3.1-1.5 1.8 0.2 4 0.4 2.8 2.4-0.3 0.5-3.7-0.9-5.9-0.9z"/><path class="t" d="m70 53.3c0 0 0.9-1.8 3.1-1.5 1.8 0.2 4 0.4 2.8 2.4-0.3 0.5-3.7-0.9-5.9-0.9z"/><path class="p" d="m82 54.6q-0.2-0.1-0.4-0.2h-0.2c-1-0.4-2.1-0.8-2.7-0.4q-0.3 0.3-0.3 1.1c0.1 0.2 1.1 0.5 1.9 0.7 0.6 0.1 1.2 0.3 1.8 0.5q0.4-0.5 0.7-1.1-0.3-0.3-0.8-0.6z"/><path class="p" d="m65.5 49.1c-0.3 0.4-0.6 0.7-0.8 1.1-0.1 0.1-0.2 0.3-0.2 0.3l-0.1-0.2c2 0.6 4.3 0.8 6.4 0.4q1.3-0.2 2.4-0.7c0.2-0.1 0.5-0.3 0.8-0.4 1.9-0.7 4.6-1.1 6.6-0.5 0.4 0.1 0.7 0.2 1 0.4v0.1q-0.5-0.3-1-0.4c-2-0.4-4.6 0-6.5 0.8-0.1 0.1-0.3 0.2-0.4 0.2-0.9 0.5-1.8 0.8-2.7 1-2.3 0.4-4.8 0.2-7-0.6l0.1-0.2c0-0.2 0.1-0.3 0.3-0.5q0.1-0.1 0.3-0.3 0.4-0.3 0.8-0.6z"/><path class="p" d="m64.5 50.6q-0.3 0.4-0.4 0.8l-0.1-0.1c0.8-0.1 1.5 0.6 1.9 1.2 0.1 0.2 0.2 0.5 0.2 0.7 0.1 0.2 0.2 0.4 0.2 0.6l0.1 0.2q0.3 0.8 0.9 1.3c0.2 0.2 0.4 0.3 0.6 0.4 0.1 0 0.2-0.1 0.2-0.2q-0.1-0.3-0.1-0.7c0.1-1.3 0.4-2.5 0.9-3.7v0.1l0.2-0.1v0.1c-0.5 1.2-0.8 2.4-0.9 3.6q0 0.4 0 0.7c0 0.2-0.2 0.4-0.4 0.3-0.4-0.1-0.7-0.4-0.9-0.7-0.4-0.3-0.6-0.8-0.7-1.2q-0.1-0.3-0.2-0.7c-0.1-0.4-0.3-0.8-0.6-1.2-0.4-0.4-0.9-0.6-1.4-0.5 0-0.4 0.2-0.7 0.3-1z"/><path class="o" d="m65.9 54.3q0 0.1 0 0.1c-0.2-0.2-1.1-0.8-1.5 0.3-0.3 0.8 0.3 1.4 0.7 1.7 0 0 0 0 0 0-0.4-0.1-1-0.2-1.2-0.1q0 0.1-0.1 0c-0.2-0.2-1.1-1.3-0.2-3.3 0.5-1.2 2-0.4 2.3 1.3z"/><path class="p" d="m83.3 52.3c-0.1-0.8-0.4-1.6-0.8-2.4l-0.2-0.5-0.2 0.1c0.2 0.4 0.5 1 0.7 1.5 0 0.1 0.1 0.3 0.1 0.5q0.1 0.3 0.1 0.6c0 0.1 0.1 0.1 0.1 0.2v0.3c0 1.1-0.3 2.2-0.7 3.2q0.1 0.1 0.2 0.1c0.4-1.1 0.8-2.3 0.7-3.6z"/><path class="p" d="m81.8 57.3q0 0.1-0.1 0.1-0.3 0.8-0.4 1.7c-0.1 0.7 0 1.5-0.1 2.2-0.2 1.1-0.6 2.2-1.2 3-3.1 3.7-8.9 2-11.8-1-1.5-1.6-2.6-3.6-3.2-5.7v-0.1h-0.1c-1.2-0.2-1.6-1.1-2-2.1-0.5-1.1-0.2-3.6 1.2-3.8 0 0 0.1 0 0.1 0 0.3 0 0.6 0.1 0.9 0.2 0.9 0.6 1.1 1.9 1.2 2.9h0.1c0-0.4 0-0.8-0.1-1.2-0.1-0.9-0.6-2-1.6-2.2l-0.2-0.1h-0.1q-0.1 0-0.1 0c0 0-0.2 0-0.2 0-0.2 0-0.4 0.1-0.6 0.2-1.1 0.6-1.3 2.2-1.1 3.3q0.1 0.5 0.4 1c0.3 0.9 0.9 1.7 1.9 1.9 0.1 0 0.2 0 0.2 0h0.1-0.1q0.1 0.6 0.3 1.1c0.5 1.4 1.2 2.8 2.1 4 0.8 1.1 1.8 2 3 2.7 2.4 1.4 5.6 2.1 8.2 0.7 1.8-0.9 2.9-2.7 3.1-4.7 0.1-0.7 0-1.5 0.1-2.2q0.1-0.6 0.2-1.1 0.1-0.4 0.2-0.8c-0.1 0-0.2 0-0.3 0z"/><path class="p" d="m64.9 57.6q0 0 0 0z"/><path class="p" d="m81.8 57.1q0.2 0 0.3 0.1 0.2-0.6 0.4-1.1-0.1-0.1-0.2-0.2-0.2 0.6-0.5 1.2z"/><path class="p" d="m82.5 56q0 0 0.1-0.1-0.2-0.1-0.3-0.1 0 0 0 0.1 0.2 0.1 0.2 0.1z"/><path class="p" d="m82.1 57.2q-0.2 0-0.3 0 0 0.1 0 0.1 0.1 0 0.3 0 0 0 0-0.1z"/><path class="p" d="m81.8 57.1q0 0.1 0 0.1 0.1 0 0.3 0 0 0 0 0-0.1 0-0.3-0.1z"/><path class="p" d="m82.5 56.1q0 0 0-0.1-0.1-0.1-0.2-0.1 0 0 0 0 0.1 0.1 0.2 0.2z"/><path class="o" d="m76.9 49.7c0.8-0.9 1.7-1.7 2.7-2.1q0.4-0.2 0.9-0.3 0.4 0 0.9 0c0.1 0 0.2 0 0.3 0-0.4-0.4-1.2-0.5-1.8-0.6-0.4 0-0.9-0.1-1.4 0q-0.8 0-1.6 0.3c-1.3 0.5-2.6 1.5-3.8 2.5-0.3 0.6-0.5 1.3 0.5 1.2q1.6-0.6 3.2-1 0 0 0.1 0z"/><path class="o" d="m82.3 49.8q0 0 0 0z"/><path class="o" d="m82.3 49.8c-0.1 0 0 0 0 0-0.1 0-0.1 0 0 0z"/><path class="o" d="m82.6 48.2c0-0.3-0.3-0.5-0.6-0.6q-0.1 0-0.2-0.1c-0.3 0-0.6 0-0.9 0-0.4 0-0.8 0.1-1.2 0.3-0.8 0.4-1.6 1-2.4 1.8-0.1 0-0.2 0.1-0.2 0.2-0.1 0.1-0.1 0.1-0.2 0.2-0.1 0.2-0.1 0.5 0.3 0.5 0.7-0.1 4-1.6 5-0.7q0.1-0.1 0.1-0.2c0.2-0.4 0.4-0.9 0.3-1.4zm-1.1 1.2q0 0 0 0z"/><path class="o" d="m81.5 49.4z"/><path class="p" d="m77.2 50.5c-0.4 0-0.4-0.3-0.3-0.5-0.9 1.1-1.9 2.3-2.6 3.3 1.4-1.2 2.8-2.3 4.5-3 0.7-0.3 1.5-0.5 2.3-0.6q0.6 0 1.1 0.1c-1-0.9-4.3 0.6-5 0.7z"/><path class="p" d="m73.1 49.5c-1 0.9-1.9 1.8-2.7 2.8q1.5-0.9 3.2-1.6c-1 0.1-0.8-0.6-0.5-1.2z"/><path class="p" d="m82.3 49.9c0.2-0.4 0.4-0.8 0.5-1.3 0.1-0.7-0.3-1-0.8-1.2q-0.2-0.4-0.8-0.7c-0.4-0.2-0.8-0.3-1.2-0.4-0.5 0-1-0.1-1.5-0.1-2 0.1-3.9 1.3-5.5 2.7-0.8 0.7-1.5 1.5-2.2 2.3q-0.7 0.7-1.3 1.5c-0.1 0.2 0.1 0.5 0.3 0.4 1.9-1.3 3.9-2.3 6.1-2.9q0.4-0.2 0.7-0.3c0 0.1 0 0.1 0 0.1-1 1.1-1.9 2.4-2.6 3.5 0 0-0.2 0.2-0.2 0.3-0.1 0.1 0.1 0.2 0.2 0.1 1.4-1.4 3-2.6 4.8-3.4 1.1-0.5 2.3-0.8 3.5-0.6q0 0 0 0zm-8.7 0.8c-1.1 0.4-2.2 1-3.2 1.5 0.8-0.9 1.7-1.9 2.7-2.7 1.2-1.1 2.5-2 3.8-2.5q0.8-0.3 1.6-0.4 0.7 0 1.4 0.1c0.6 0.1 1.4 0.2 1.7 0.6q-0.1 0-0.3 0-0.4 0-0.8 0-0.5 0.1-0.9 0.3c-1 0.4-1.9 1.2-2.8 2.1q0 0 0 0-1.6 0.4-3.2 1zm8.7-1.1q0 0.1 0 0.2 0 0 0 0h-0.1q0 0 0 0c-0.4-0.1-0.8-0.1-1.1-0.1-0.8 0.1-1.6 0.3-2.4 0.6-1.6 0.7-3.1 1.8-4.4 3 0.7-1 1.6-2.2 2.6-3.3 0.1-0.1 0.1-0.1 0.2-0.2 0-0.1 0.1-0.2 0.2-0.2 0.8-0.8 1.6-1.4 2.4-1.8 0.4-0.2 0.8-0.3 1.2-0.3 0.3 0 0.6 0 0.9 0q0.1 0.1 0.2 0.1c0.3 0.1 0.6 0.3 0.6 0.6 0.1 0.5-0.1 1-0.3 1.4z"/><path class="s" d="m78.3 47.7c-0.1-0.1-0.5 0-1 0.3-0.1 0.1-0.2 0-0.2-0.1q0-0.1 0-0.2c-0.1-0.2-0.6 0-1 0.3-0.4 0.3-0.7 0.7-0.5 0.9q0 0.1 0.2 0c0.1 0 0.2 0.2 0.1 0.3-0.2 0.2-0.3 0.4-0.2 0.4 0.1 0.2 0.7-0.1 1.5-0.6 0.7-0.6 1.2-1.1 1.1-1.3z"/><path class="p" d="m77.2 62.5q0.1 0.5 0.1 1.1c0 0.7 0 1-0.3 1.7 0.6-0.1 1.4-0.6 1.8-1.1 0.6-0.7 0.6-1 0.9-1.7-0.5 0-1.4 0-2.5 0z"/><path class="v" d="m77.2 62.5c-1.4-0.2-3.1-0.5-4.5-1.3q-0.9-0.5-1.6-1.3-0.2 0.5-0.4 1.4-0.1 0.5 0 0.9c0.5-0.1 1.4-0.3 2.5-0.2 1.2 0.2 2.7 0.6 4.1 1.6q0-0.6-0.1-1.1z"/><path class="u" d="m78.4 60.8c-0.3 0-1.4 0.2-2.3-0.1-1.3-0.4-2.5-1.2-2.9-1.5-0.6-0.3-1.5-0.5-2.1 0.7 0.5 0.5 1 0.9 1.6 1.3-0.8-0.6-0.3-1.4 0.1-1.3 1.7 0.7 3 1.1 4 1.3 1.7 0.4 2.6 0.2 3 0-0.3-0.5-1.1-0.5-1.4-0.4z"/><path class="r" d="m77.3 63.6c-1.4-1-2.9-1.4-4.1-1.6-1.1-0.1-2 0.1-2.5 0.2 0.1 0.6 0.4 1.2 0.9 1.6 1.3 1.3 3.5 1.6 4.7 1.7 0.2 0 0.6-0.1 0.8-0.2 0.2-0.7 0.2-1 0.2-1.7z"/><path fill-rule="evenodd" class="w" d="m74.3 61.9c0 0 0.5 1.1-0.1 2.9"/><path class="q" d="m79.8 61.2c-0.4 0.2-1.3 0.4-3 0-1-0.2-2.3-0.6-4-1.3-0.4-0.1-0.9 0.6-0.1 1.3 1.4 0.8 3.1 1.2 4.5 1.3 1.1 0 2 0 2.5 0q0-0.2 0.1-0.3c0.1-0.5 0.1-0.8 0-1z"/><path class="t" d="m78.8 64.2c0.6-0.7 0.9-1.7 0.9-1.7q0-0.2 0.1-0.3c0.2-0.5 0.1-0.8 0-1-0.3-0.5-1.1-0.5-1.4-0.4-0.3 0-1.4 0.2-2.3-0.1-1.3-0.4-2.5-1.2-2.9-1.5-0.6-0.3-1.5-0.5-2.1 0.7q-0.2 0.5-0.4 1.4-0.1 0.5 0 0.9c0 0.6 0.4 1.2 0.9 1.6 0 0 4.4 3.4 7.2 0.4z"/><path class="x" d="m74 74.1c11.1 0 20.1-9 20.1-20.1 0-11.1-9-20.1-20.1-20.1-11.1 0-20.1 9-20.1 20.1 0 11.1 9 20.1 20.1 20.1z"/><path class="f" d="m145.7 8.4l-12.8 0.7-0.7 12.7-0.7-12.7-12.7-0.7 12.7-0.7 0.7-12.8 0.7 12.8z"/><path class="f" d="m165.4 27.3l-7.1 0.4-0.4 7.1-0.4-7.1-7.2-0.4 7.2-0.4 0.4-7.1 0.4 7.1z"/><path class="f" d="m53.9 103.8l-7.1 0.4-0.4 7.1-0.4-7.1-7.2-0.4 7.2-0.4 0.4-7.2 0.4 7.2z"/><path class="f" d="m30 40.2l-5 5.5 5 5.5-5.6-4.9-5.5 4.9 5-5.5-5-5.5 5.5 5z"/><path class="f" d="m24.4 22.2l0.4 23.1 23.1 0.4-23.1 0.4-0.4 23.1-0.4-23.1-23.1-0.4 23.1-0.4z"/><path class="f" d="m132.7 52.5l0.2 14.2 14.2 0.2-14.2 0.3-0.2 14.1-0.2-14.1-14.2-0.3 14.2-0.2z"/><path class="f" d="m-3 2.3l0.2 14.2 14.1 0.2-14.1 0.2-0.2 14.2-0.3-14.2-14.1-0.2 14.1-0.2z"/></svg>